<svg width="62" height="50" viewBox="0 0 62 50" fill="none" xmlns="http://www.w3.org/2000/svg">
<g id="Group 24">
<g id="Group 26">
<path id="Vector" d="M24.6945 49.2698H41.3691C41.5971 49.2698 41.8078 49.1431 41.9158 48.9431C42.0238 48.7431 42.0131 48.4991 41.8878 48.3071L34.7531 37.4272C34.6105 37.2058 34.3345 37.1018 34.0865 37.1645L31.2705 37.8565C31.1185 37.8938 30.9865 37.9872 30.8998 38.1178L24.1758 48.3058C24.0505 48.4965 24.0398 48.7418 24.1478 48.9418C24.2558 49.1445 24.4665 49.2698 24.6945 49.2698Z" fill="#DBDAFD"/>
<path id="Vector_2" d="M6.09487 44.6008C6.43754 44.8128 6.82553 44.9221 7.22153 44.9221C7.39087 44.9221 7.5602 44.9034 7.72953 44.8634L59.3693 32.2741C60.5053 31.9955 61.2133 30.8328 60.9427 29.6621C60.6427 28.5181 59.488 27.8155 58.364 28.0848L6.72554 40.6754C6.1802 40.8034 5.71354 41.1434 5.41354 41.6288C5.11087 42.1194 5.01221 42.7194 5.14421 43.2688C5.27354 43.8274 5.61087 44.2994 6.09487 44.6008Z" fill="#DBDAFD"/>
<path id="Vector_3" d="M10.5333 38.502C8.00397 38.502 5.61465 37.4941 3.80399 35.6674C1.996 33.8421 1 31.4301 1 28.8794C1 26.3288 1.996 23.8888 3.80399 22.0648C4.7684 21.0909 5.92277 20.3424 7.19864 19.8574V19.6981C5.93732 19.6981 4.90932 18.6635 4.90932 17.3928C4.90932 16.1221 5.93732 15.0875 7.19864 15.0875H8.27197V14.4381C8.27197 13.1675 9.28664 12.1328 10.5346 12.1328C11.7826 12.1328 12.8226 13.1675 12.8226 14.4381V15.0875H13.896C15.1573 15.0875 16.1853 16.1208 16.1853 17.3928C16.1853 18.6124 15.2401 19.6127 14.0504 19.6929C14.0909 19.7863 14.1315 19.8801 14.1722 19.9741C15.3196 20.4563 16.374 21.1615 17.2839 22.0608C19.0786 23.8741 20.0653 26.2941 20.0653 28.8808C20.0653 31.4674 19.0786 33.8594 17.2893 35.6674C15.4786 37.4954 13.08 38.502 10.5333 38.502Z" fill="#DBDAFD"/>
<path id="Vector_4" d="M44.4 25.9214C46.192 27.7307 48.592 28.7281 51.156 28.7281L51.1587 28.7267C53.7066 28.7267 56.096 27.7307 57.888 25.9201C59.696 24.0961 60.692 21.6561 60.692 19.1054C60.692 16.5548 59.696 14.1428 57.892 12.3215C56.6626 11.0535 55.1266 10.1775 53.42 9.7668V8.41481L53.5693 8.56281C54.0133 8.99481 54.5773 9.20147 55.2066 9.21081C55.8066 9.19747 56.3626 8.95214 56.7666 8.52681C57.1973 8.09081 57.4306 7.51215 57.424 6.89481C57.4173 6.28282 57.164 5.68949 56.732 5.27215L52.8626 1.4775C52.004 0.453504 50.2213 0.524171 49.4627 1.4335L45.5587 5.26682C45.1227 5.68815 44.868 6.28282 44.8627 6.89481C44.856 7.51215 45.0893 8.09081 45.512 8.51748C45.924 8.95081 46.48 9.19747 47.0773 9.21081C47.752 9.22414 48.272 8.99481 48.7213 8.55881L48.868 8.41614V9.76814C47.164 10.1788 45.6253 11.0548 44.4 12.3175C42.6094 14.1281 41.624 16.5201 41.624 19.1068C41.624 21.6934 42.6107 24.1134 44.4 25.9214Z" fill="#DBDAFD"/>
</g>
<g id="Group 25">
<path id="Vector_5" d="M41.3704 49.2698H24.6945C24.4665 49.2698 24.2558 49.1445 24.1478 48.9418C24.0398 48.7418 24.0505 48.4965 24.1758 48.3058L30.8998 38.1178C30.9865 37.9872 31.1185 37.8938 31.2705 37.8565L34.0865 37.1645C34.3345 37.1018 34.6105 37.2058 34.7531 37.4272L41.8878 48.3071C42.0131 48.4991 42.0238 48.7431 41.9158 48.9431C41.8078 49.1431 41.5971 49.2698 41.3691 49.2698H41.3704ZM25.8492 48.0271H40.2184L33.9558 38.4765L31.8025 39.0058L25.8492 48.0271Z" fill="#001452" stroke="#001452" stroke-width="0.75"/>
<g id="Vector_6">
<path d="M7.22153 44.9221C6.82554 44.9221 6.43754 44.8128 6.09487 44.6008C5.61087 44.2994 5.27354 43.8274 5.14421 43.2688C5.01221 42.7194 5.11087 42.1194 5.41354 41.6288C5.71354 41.1434 6.1802 40.8034 6.72554 40.6754L58.364 28.0848C59.488 27.8155 60.6427 28.5181 60.9427 29.6621C61.2133 30.8328 60.5053 31.9955 59.3693 32.2741L7.72953 44.8634C7.5602 44.9034 7.39087 44.9221 7.22153 44.9221ZM58.8573 29.2675C58.792 29.2675 58.7253 29.2768 58.6587 29.2928L7.01753 41.8821C7.01753 41.8821 7.01353 41.8821 7.0122 41.8834C6.78954 41.9341 6.59887 42.0768 6.4722 42.2794C6.3402 42.4928 6.29887 42.7488 6.35354 42.9834C6.40954 43.2221 6.54954 43.4194 6.75087 43.5448C6.9562 43.6714 7.20153 43.7114 7.4402 43.6541L59.0747 31.0648C59.5467 30.9501 59.8493 30.4435 59.7373 29.9595C59.6307 29.5515 59.2573 29.2661 58.8587 29.2661L58.8573 29.2675Z" fill="#001452"/>
<path d="M6.86953 41.2781H6.8842M7.22153 44.9221C6.82554 44.9221 6.43754 44.8128 6.09487 44.6008C5.61087 44.2994 5.27354 43.8274 5.14421 43.2688C5.01221 42.7194 5.11087 42.1194 5.41354 41.6288C5.71354 41.1434 6.1802 40.8034 6.72554 40.6754L58.364 28.0848C59.488 27.8155 60.6427 28.5181 60.9427 29.6621C61.2133 30.8328 60.5053 31.9955 59.3693 32.2741L7.72953 44.8634C7.5602 44.9034 7.39087 44.9221 7.22153 44.9221ZM58.8573 29.2675C58.792 29.2675 58.7253 29.2768 58.6587 29.2928L7.01753 41.8821C7.01753 41.8821 7.01353 41.8821 7.0122 41.8834C6.78954 41.9341 6.59887 42.0768 6.4722 42.2794C6.3402 42.4928 6.29887 42.7488 6.35354 42.9834C6.40954 43.2221 6.54954 43.4194 6.75087 43.5448C6.9562 43.6714 7.20153 43.7114 7.4402 43.6541L59.0747 31.0648C59.5467 30.9501 59.8493 30.4435 59.7373 29.9595C59.6307 29.5515 59.2573 29.2661 58.8587 29.2661L58.8573 29.2675Z" stroke="#001452" stroke-width="0.75"/>
</g>
<path id="Vector_7" d="M10.5333 38.502C8.00397 38.502 5.61465 37.4941 3.80399 35.6674C1.996 33.8421 1 31.4301 1 28.8794C1 26.3288 1.996 23.8888 3.80399 22.0648C5.03199 20.8248 6.56798 19.9501 8.27064 19.5195V19.2435C8.27064 18.8995 8.54797 18.6221 8.89197 18.6221C9.23597 18.6221 9.5133 18.8995 9.5133 19.2435V20.0168C9.5133 20.3141 9.30397 20.5674 9.0133 20.6261C7.35331 20.9554 5.85865 21.7554 4.68665 22.9394C3.11066 24.5301 2.24133 26.6394 2.24133 28.8794C2.24133 31.1194 3.10933 33.2021 4.68665 34.7927C6.26131 36.3834 8.33731 37.2594 10.532 37.2594C12.7266 37.2594 14.8306 36.3834 16.4053 34.7927C17.9639 33.2181 18.8226 31.1181 18.8226 28.8794C18.8226 26.6408 17.9639 24.5141 16.4053 22.9394C15.2013 21.7501 13.7053 20.9501 12.0773 20.6261C11.7866 20.5674 11.5773 20.3128 11.5773 20.0168V19.2435C11.5773 18.8995 11.8546 18.6221 12.1986 18.6221C12.5426 18.6221 12.82 18.8995 12.82 19.2435V19.5208C14.4933 19.9461 16.0266 20.8181 17.2839 22.0608C19.0786 23.8741 20.0653 26.2941 20.0653 28.8808C20.0653 31.4674 19.0786 33.8594 17.2893 35.6674C15.4786 37.4954 13.08 38.502 10.5333 38.502ZM10.5333 35.1607C8.88397 35.1607 7.32931 34.5074 6.15465 33.3194C4.99865 32.1501 4.33599 30.5314 4.33599 28.8794C4.33599 27.2274 4.98265 25.6234 6.15465 24.4394C7.33064 23.2528 8.88397 22.5981 10.5333 22.5981C12.1826 22.5981 13.7626 23.2514 14.9386 24.4394C16.1133 25.6234 16.7586 27.1994 16.7586 28.8794C16.7586 30.5594 16.0946 32.1514 14.9386 33.3194C13.7626 34.5061 12.1986 35.1607 10.5333 35.1607ZM10.5333 23.8408C9.21864 23.8408 7.97731 24.3648 7.03731 25.3128C6.09598 26.2634 5.57865 27.5301 5.57865 28.8794C5.57865 30.2287 6.11065 31.5087 7.03731 32.4461C8.93064 34.3567 12.1866 34.3314 14.056 32.4461C14.9839 31.5087 15.5173 30.2087 15.5173 28.8794C15.5173 27.5501 14.9986 26.2634 14.056 25.3128C13.116 24.3634 11.8653 23.8408 10.5333 23.8408ZM13.8946 19.6981C13.5506 19.6981 13.2733 19.4208 13.2733 19.0768C13.2733 18.7328 13.5506 18.4555 13.8946 18.4555C14.472 18.4555 14.9413 17.9795 14.9413 17.3928C14.9413 16.8061 14.4826 16.3301 13.8946 16.3301H12.2C11.856 16.3301 11.5786 16.0528 11.5786 15.7088V14.4381C11.5786 13.8515 11.1093 13.3755 10.5333 13.3755C9.9573 13.3755 9.51464 13.8621 9.51464 14.4381V15.7088C9.51464 16.0528 9.2373 16.3301 8.8933 16.3301H7.19864C6.61065 16.3301 6.15198 16.7968 6.15198 17.3928C6.15198 17.9888 6.62131 18.4555 7.19864 18.4555C7.54264 18.4555 7.81998 18.7328 7.81998 19.0768C7.81998 19.4208 7.54264 19.6981 7.19864 19.6981C5.93732 19.6981 4.90932 18.6635 4.90932 17.3928C4.90932 16.1221 5.93732 15.0875 7.19864 15.0875H8.27197V14.4381C8.27197 13.1675 9.28664 12.1328 10.5346 12.1328C11.7826 12.1328 12.8226 13.1675 12.8226 14.4381V15.0875H13.896C15.1573 15.0875 16.1853 16.1208 16.1853 17.3928C16.1853 18.6648 15.1573 19.6981 13.896 19.6981H13.8946Z" fill="#001452" stroke="#001452" stroke-width="0.75"/>
<path id="Vector_8" d="M51.156 28.7281C48.592 28.7281 46.192 27.7307 44.4 25.9214C42.6107 24.1134 41.624 21.6934 41.624 19.1068C41.624 16.5201 42.6094 14.1281 44.4 12.3175C45.6253 11.0548 47.164 10.1788 48.868 9.76814V8.41614L48.7213 8.55881C48.272 8.99481 47.752 9.22414 47.0773 9.21081C46.48 9.19747 45.924 8.95081 45.512 8.51748C45.0893 8.09081 44.856 7.51215 44.8627 6.89481C44.868 6.28282 45.1227 5.68815 45.5587 5.26682L49.4627 1.4335C50.2213 0.524171 52.004 0.453504 52.8626 1.4775L56.732 5.27215C57.164 5.68949 57.4173 6.28282 57.424 6.89481C57.4306 7.51215 57.1973 8.09081 56.7666 8.52681C56.3626 8.95214 55.8066 9.19747 55.2066 9.21081C54.5773 9.20147 54.0133 8.99481 53.5693 8.56281L53.42 8.41481V9.7668C55.1266 10.1775 56.6626 11.0535 57.892 12.3215C59.696 14.1428 60.692 16.5548 60.692 19.1054C60.692 21.6561 59.696 24.0961 57.888 25.9201C56.096 27.7307 53.7066 28.7267 51.1587 28.7267L51.156 28.7281ZM49.4893 6.30815C49.5693 6.30815 49.652 6.32415 49.7293 6.35615C49.96 6.45215 50.1107 6.67881 50.1107 6.92948V10.2708C50.1107 10.5708 49.896 10.8281 49.6013 10.8815C47.948 11.1841 46.456 11.9815 45.2867 13.1868C43.724 14.7655 42.8654 16.8668 42.8654 19.1054C42.8654 21.3441 43.724 23.4708 45.2827 25.0467C46.84 26.6201 48.9267 27.4854 51.156 27.4854C53.3853 27.4854 55.444 26.6201 57.0013 25.0467C58.5773 23.4561 59.4466 21.3454 59.4466 19.1054C59.4466 16.8654 58.5786 14.7828 57.0013 13.1908C55.8293 11.9801 54.3373 11.1828 52.684 10.8801C52.3907 10.8255 52.1747 10.5681 52.1747 10.2695V6.92815C52.1747 6.67748 52.3253 6.45082 52.556 6.35482C52.7867 6.25748 53.0533 6.30948 53.232 6.48682L54.4346 7.67348C54.6346 7.86681 54.8986 7.98014 55.1786 7.96548C55.444 7.96014 55.6893 7.85081 55.872 7.65881C56.076 7.45215 56.184 7.18815 56.1786 6.90548C56.176 6.61882 56.0626 6.35482 55.8626 6.15882L51.9493 2.3175C51.4773 1.7655 50.744 1.83217 50.372 2.2735L46.424 6.15615C46.2187 6.35482 46.1067 6.62015 46.104 6.90548C46.1 7.18815 46.2067 7.45215 46.4027 7.64948C46.5947 7.85081 46.84 7.95881 47.104 7.96548C47.4 7.98281 47.648 7.86548 47.852 7.66681L49.0507 6.48548C49.1693 6.36815 49.3253 6.30548 49.4867 6.30548L49.4893 6.30815ZM51.156 25.3881C49.4907 25.3881 47.9267 24.7347 46.7507 23.5468C45.576 22.3614 44.9307 20.7828 44.9307 19.1068C44.9307 17.4308 45.5947 15.8334 46.7507 14.6668C47.9267 13.4801 49.4907 12.8255 51.156 12.8255C52.8213 12.8255 54.36 13.4788 55.5346 14.6668C56.6893 15.8348 57.3533 17.4534 57.3533 19.1068C57.3533 20.7601 56.7066 22.3601 55.5346 23.5468C54.3586 24.7334 52.8053 25.3881 51.156 25.3881ZM51.156 14.0681C49.824 14.0681 48.5733 14.5921 47.6333 15.5401C46.7053 16.4761 46.172 17.7761 46.172 19.1068C46.172 20.4374 46.6907 21.7214 47.6333 22.6734C49.5 24.5601 52.76 24.5827 54.652 22.6734C55.5933 21.7214 56.1106 20.4548 56.1106 19.1068C56.1106 17.7588 55.5786 16.4774 54.652 15.5401C53.712 14.5908 52.4707 14.0681 51.156 14.0681Z" fill="#001452" stroke="#001452" stroke-width="0.75"/>
</g>
</g>
</svg>
