<svg width="62" height="62" viewBox="0 0 62 62" fill="none" xmlns="http://www.w3.org/2000/svg">
<g id="1944, Cash, Coin, Ecommerce, Money">
<g id="Group">
<path id="Vector" d="M30.9999 0.148438C13.9599 0.148438 0.149902 13.9584 0.149902 30.9984C0.149902 48.0384 13.9599 61.8484 30.9999 61.8484C48.0399 61.8484 61.8499 48.0384 61.8499 30.9984C61.8499 13.9584 48.0399 0.148438 30.9999 0.148438Z" fill="#DBDAFD"/>
<path id="Vector_2" d="M30.9999 0.148438C13.9599 0.148438 0.149902 13.9584 0.149902 30.9984C0.149902 48.0384 13.9599 61.8484 30.9999 61.8484C48.0399 61.8484 61.8499 48.0384 61.8499 30.9984C61.8499 13.9584 48.0399 0.148438 30.9999 0.148438ZM30.9999 59.2284C15.3699 59.2284 2.7699 46.5284 2.7699 30.9984C2.7699 15.4684 15.4799 2.76844 30.9999 2.76844C46.5199 2.76844 59.2299 15.4684 59.2299 30.9984C59.2299 46.5284 46.6299 59.2284 30.9999 59.2284Z" fill="#001452"/>
<path id="Vector_3" d="M31.0001 9.11719C19.0001 9.11719 9.12012 18.8972 9.12012 30.9972C9.12012 43.0972 18.9001 52.8772 31.0001 52.8772C43.1001 52.8772 52.8801 43.0972 52.8801 30.9972C52.8801 18.8972 43.0001 9.11719 31.0001 9.11719ZM31.0001 50.2572C20.4101 50.2572 11.7401 41.5872 11.7401 30.9972C11.7401 20.4072 20.4201 11.7372 31.0001 11.7372C41.5801 11.7372 50.2601 20.4072 50.2601 30.9972C50.2601 41.5872 41.5901 50.2572 31.0001 50.2572Z" fill="#001452"/>
<path id="Vector_4" d="M34.1301 30.9977H32.3201V23.3377H34.8401C35.5501 23.3377 36.1501 22.7377 36.1501 22.0277C36.1501 21.3177 35.5501 20.7177 34.8401 20.7177H32.3201V19.4077C32.3201 18.6977 31.7201 18.0977 31.0101 18.0977C30.3001 18.0977 29.7001 18.6977 29.7001 19.4077V20.7177H27.8901C26.0801 20.7177 24.5601 22.2277 24.5601 24.0477V30.1977C24.5601 32.0177 26.0701 33.5277 27.8901 33.5277H29.7001V41.1877H27.1801C26.4701 41.1877 25.8701 41.7877 25.8701 42.4977C25.8701 43.2077 26.4801 43.8077 27.1801 43.8077H29.7001V45.1177C29.7001 45.8277 30.3001 46.4277 31.0101 46.4277C31.7201 46.4277 32.3201 45.8277 32.3201 45.1177V43.8077H34.1301C35.9501 43.8077 37.4601 42.2977 37.4601 40.4777V34.3277C37.4601 32.5177 35.9501 30.9977 34.1301 30.9977ZM27.8801 30.9977C27.4801 30.9977 27.0701 30.6977 27.0701 30.1877V24.0377C27.0701 23.6377 27.3701 23.2277 27.8801 23.2277H29.6901V30.8877H27.8801V30.9877V30.9977ZM34.8401 40.4777C34.8401 40.8777 34.5401 41.2877 34.0301 41.2877H32.2101V33.5277H34.0301C34.4301 33.5277 34.8401 33.8277 34.8401 34.3377V40.4877V40.4777Z" fill="#001452"/>
</g>
</g>
</svg>
