<svg width="56" height="54" viewBox="0 0 56 54" fill="none" xmlns="http://www.w3.org/2000/svg">
<g id="459, camera, image, photo, picture">
<g id="Group">
<path id="Vector" d="M3.42477 53.7H52.4848H52.4948C54.2148 53.7 55.5248 52.3 55.4248 50.7V22C55.4248 20.4 54.1048 19 52.3848 19H3.42477C1.70477 19 0.384766 20.3 0.384766 22V50.7C0.384766 52.3 1.80477 53.7 3.42477 53.7Z" fill="#DBDAFD"/>
<path id="Vector_2" d="M52.4848 53.7H3.42477C1.80477 53.7 0.384766 52.3 0.384766 50.7V22C0.384766 20.3 1.70477 19 3.42477 19H52.3848C54.1048 19 55.4248 20.4 55.4248 22V50.7C55.5248 52.3 54.2148 53.7 52.4948 53.7H52.4848ZM3.42477 21.3C3.02477 21.3 2.71477 21.6 2.71477 22V50.7C2.71477 51.1 3.01477 51.4 3.42477 51.4H52.3848C52.7848 51.4 53.0948 51.1 53.0948 50.7V22C53.0948 21.6 52.7948 21.3 52.3848 21.3H3.42477Z" fill="#001452"/>
<path id="Vector_3" d="M43.1746 21.3023H13.0346C12.6346 21.3023 12.2246 21.1023 12.0246 20.8023C11.8246 20.5023 11.8246 20.1023 11.9246 19.7023L15.4646 11.6023C15.6646 11.2023 16.0746 10.9023 16.5746 10.9023H39.6346C40.1446 10.9023 40.5446 11.2023 40.7446 11.6023L44.2846 19.6023C44.3846 19.8023 44.3846 19.9023 44.3846 20.1023C44.3846 20.7023 43.8746 21.3023 43.1746 21.3023ZM14.8446 18.9023H41.4546L38.9246 13.1023H17.3746L14.8446 18.9023Z" fill="#001452"/>
<path id="Vector_4" d="M10.0948 21.3023H5.1348C4.5248 21.3023 3.9248 20.8023 3.9248 20.1023V16.6023C3.9248 16.0023 4.4348 15.4023 5.1348 15.4023H10.0948C10.7048 15.4023 11.3048 15.9023 11.3048 16.6023V20.1023C11.2048 20.7023 10.6948 21.3023 10.0948 21.3023ZM6.3548 18.9023H8.8848V17.7023H6.3548V18.9023Z" fill="#001452"/>
<path id="Vector_5" d="M50.8648 21.3023H42.6748C42.0648 21.3023 41.4648 20.8023 41.4648 20.1023V16.6023C41.4648 16.0023 41.9748 15.4023 42.6748 15.4023H50.8648C51.4748 15.4023 52.0748 15.9023 52.0748 16.6023V20.1023C51.9748 20.7023 51.4648 21.3023 50.8648 21.3023ZM43.7848 18.9023H49.6548V17.7023H43.7848V18.9023Z" fill="#001452"/>
<path id="Vector_6" d="M28.1045 7.90078C27.4945 7.90078 26.8945 7.40078 26.8945 6.70078V1.50078C26.8945 0.900781 27.4045 0.300781 28.1045 0.300781C28.7145 0.300781 29.3145 0.800781 29.3145 1.50078V6.80078C29.3145 7.40078 28.8045 7.90078 28.1045 7.90078Z" fill="#001452"/>
<path id="Vector_7" d="M33.0548 8.30033C32.8548 8.30033 32.6548 8.20033 32.4448 8.10033C31.9448 7.80033 31.7348 7.00033 32.0448 6.50033L34.9748 1.90033C35.2748 1.40033 36.0848 1.20033 36.5948 1.50033C37.0948 1.80033 37.3048 2.60033 36.9948 3.10033L34.0648 7.70033C33.7648 8.10033 33.3548 8.30033 33.0548 8.30033Z" fill="#001452"/>
<path id="Vector_8" d="M23.145 8.30132C22.745 8.30132 22.335 8.10132 22.135 7.80132L19.305 3.20132C19.005 2.70132 19.105 1.90132 19.715 1.60132C20.325 1.30132 21.025 1.40132 21.335 2.00132L24.165 6.60132C24.465 7.10132 24.365 7.90132 23.765 8.20132C23.565 8.20132 23.365 8.30132 23.155 8.30132H23.145Z" fill="#001452"/>
<path id="Vector_9" d="M33.2647 21.3008H22.7447C22.1347 21.3008 21.5347 20.8008 21.5347 20.1008V15.5008C21.5347 14.9008 22.0447 14.3008 22.7447 14.3008H33.2647C33.8747 14.3008 34.4747 14.8008 34.4747 15.5008V20.1008C34.3747 20.7008 33.8647 21.3008 33.2647 21.3008ZM23.8547 18.9008H32.0447V16.6008H23.8547V18.9008Z" fill="#001452"/>
<path id="Vector_10" d="M54.4048 44.3992H37.4048C37.0048 44.3992 36.5948 44.1992 36.3948 43.7992C36.1948 43.3992 36.1948 42.8992 36.4948 42.5992C37.9148 40.7992 38.6148 38.5992 38.6148 36.2992C38.6148 33.9992 37.9048 31.8992 36.4948 29.9992C36.1948 29.5992 36.1948 29.1992 36.3948 28.7992C36.5948 28.3992 37.0048 28.1992 37.4048 28.1992H54.4048C55.0148 28.1992 55.6148 28.6992 55.6148 29.3992V43.2992C55.5148 43.8992 55.0048 44.3992 54.4048 44.3992ZM39.5348 42.0992H53.1948V30.4992H39.5348C40.4448 32.2992 40.9548 34.1992 40.9548 36.2992C40.8548 38.3992 40.4448 40.2992 39.5348 42.0992Z" fill="#001452"/>
<path id="Vector_11" d="M18.5948 44.3992H1.59477C0.984766 44.3992 0.384766 43.8992 0.384766 43.1992V29.3992C0.384766 28.7992 0.894766 28.1992 1.59477 28.1992H18.5848C18.9848 28.1992 19.3948 28.3992 19.5948 28.7992C19.7948 29.1992 19.7948 29.6992 19.4948 29.9992C18.0748 31.7992 17.3748 33.9992 17.3748 36.2992C17.3748 38.5992 18.0848 40.6992 19.4948 42.5992C19.7948 42.9992 19.7948 43.3992 19.5948 43.7992C19.4948 44.1992 19.0848 44.3992 18.5848 44.3992H18.5948ZM2.81477 42.0992H16.4748C15.5648 40.2992 15.0548 38.3992 15.0548 36.2992C15.0548 34.1992 15.5648 32.2992 16.4748 30.4992H2.81477V42.0992Z" fill="#001452"/>
<path id="Vector_12" d="M28.0048 49.0992C23.9548 49.0992 20.1148 47.1992 17.6848 43.9992C15.9648 41.7992 15.1548 39.0992 15.1548 36.3992C15.1548 33.6992 16.0648 30.9992 17.6848 28.7992C20.1148 25.5992 23.8548 23.6992 28.0048 23.6992C32.1548 23.6992 35.8948 25.5992 38.3248 28.7992C40.0448 30.9992 40.8548 33.6992 40.8548 36.3992C40.8548 39.0992 39.9448 41.7992 38.3248 43.9992C35.8948 47.1992 32.0548 49.0992 28.0048 49.0992ZM28.0048 25.8992C24.6648 25.8992 21.6348 27.3992 19.6048 30.0992C18.1848 31.8992 17.4848 34.0992 17.4848 36.3992C17.4848 38.6992 18.1948 40.7992 19.6048 42.6992C21.6248 45.3992 24.6648 46.8992 28.0048 46.8992C31.3448 46.8992 34.3748 45.3992 36.4048 42.6992C37.8248 40.8992 38.5248 38.6992 38.5248 36.3992C38.5248 34.0992 37.8148 31.9992 36.4048 30.0992C34.3848 27.3992 31.3448 25.8992 28.0048 25.8992Z" fill="#001452"/>
<path id="Vector_13" d="M28.0048 43.3008C25.7748 43.3008 23.7548 42.3008 22.3448 40.5008C21.4348 39.3008 20.9248 37.8008 20.9248 36.3008C20.9248 34.8008 21.4348 33.3008 22.3448 32.1008C23.6548 30.3008 25.7848 29.3008 28.0048 29.3008C30.2248 29.3008 32.2548 30.3008 33.6748 32.1008C34.5848 33.3008 35.0948 34.8008 35.0948 36.3008C35.0948 37.8008 34.5848 39.3008 33.6748 40.5008C32.2548 42.3008 30.2348 43.3008 28.0048 43.3008ZM28.0048 31.7008C26.4848 31.7008 25.1748 32.4008 24.2648 33.6008C23.6548 34.4008 23.3548 35.4008 23.3548 36.4008C23.3548 37.4008 23.6548 38.4008 24.2648 39.2008C25.1748 40.4008 26.4948 41.1008 28.0048 41.1008C29.5148 41.1008 30.8348 40.4008 31.7448 39.2008C32.3548 38.4008 32.6548 37.4008 32.6548 36.4008C32.6548 35.4008 32.3548 34.4008 31.7448 33.6008C30.8348 32.4008 29.5148 31.7008 28.0048 31.7008Z" fill="#001452"/>
</g>
</g>
</svg>
