<svg width="62" height="61" viewBox="0 0 62 61" fill="none" xmlns="http://www.w3.org/2000/svg">
<g id="D - 726, Child, dad, family, father, kid">
<g id="Group">
<path id="Vector" d="M60.4313 45.9195L55.0913 40.6795C54.8913 40.4795 54.4913 40.2795 54.1813 40.2795H52.7713C53.1713 39.5695 53.3713 38.7695 53.3713 37.8595C53.3713 35.1395 51.1513 33.0195 48.5313 33.0195C45.9113 33.0195 43.6913 35.2395 43.6913 37.8595C43.6913 38.7695 43.8913 39.5695 44.2913 40.2795H42.8813C42.5813 40.2795 42.2713 40.3795 41.9713 40.6795L36.6313 45.9195C35.5213 47.0295 35.5213 48.7395 36.6313 49.8495C37.7413 50.9595 39.4513 50.9595 40.5613 49.8495L41.8713 48.5395V59.4295C41.8713 60.1395 42.4713 60.7395 43.1813 60.7395H47.0113C47.7213 60.7395 48.3213 60.1395 48.3213 59.4295V52.8795H48.9213V59.4295C48.9213 60.1395 49.5213 60.7395 50.2313 60.7395H54.0613C54.7713 60.7395 55.3713 60.1395 55.3713 59.4295V48.5395L56.6813 49.8495C57.1813 50.3495 57.8913 50.6595 58.6013 50.6595C60.1113 50.6595 61.3213 49.4495 61.3213 47.9395C61.2213 47.1295 60.9213 46.4295 60.4113 45.9195H60.4313Z" fill="#DBDAFD"/>
<path id="Vector_2" d="M60.4313 45.9195L55.0913 40.6795C54.8913 40.4795 54.4913 40.2795 54.1813 40.2795H52.7713C53.1713 39.5695 53.3713 38.7695 53.3713 37.8595C53.3713 35.1395 51.1513 33.0195 48.5313 33.0195C45.9113 33.0195 43.6913 35.2395 43.6913 37.8595C43.6913 38.7695 43.8913 39.5695 44.2913 40.2795H42.8813C42.5813 40.2795 42.2713 40.3795 41.9713 40.6795L36.6313 45.9195C35.5213 47.0295 35.5213 48.7395 36.6313 49.8495C37.7413 50.9595 39.4513 50.9595 40.5613 49.8495L41.8713 48.5395V59.4295C41.8713 60.1395 42.4713 60.7395 43.1813 60.7395H47.0113C47.7213 60.7395 48.3213 60.1395 48.3213 59.4295V52.8795H48.9213V59.4295C48.9213 60.1395 49.5213 60.7395 50.2313 60.7395H54.0613C54.7713 60.7395 55.3713 60.1395 55.3713 59.4295V48.5395L56.6813 49.8495C57.1813 50.3495 57.8913 50.6595 58.6013 50.6595C60.1113 50.6595 61.3213 49.4495 61.3213 47.9395C61.2213 47.1295 60.9213 46.4295 60.4113 45.9195H60.4313ZM48.5313 35.5395C49.8413 35.5395 50.8513 36.5495 50.8513 37.8595C50.8513 39.1695 49.8413 40.1795 48.5313 40.1795C47.2213 40.1795 46.2113 39.1695 46.2113 37.8595C46.2113 36.5495 47.3213 35.5395 48.5313 35.5395ZM58.3113 48.0395L54.8813 44.6095C54.4813 44.2095 53.9713 44.1095 53.4713 44.3095C52.9713 44.5095 52.6613 44.9095 52.6613 45.5195V58.2195H51.3513V51.6695C51.3513 50.9595 50.7513 50.3595 50.0413 50.3595H46.9113C46.2013 50.3595 45.6013 50.9695 45.6013 51.6695V58.2195H44.2913V45.5195C44.2913 45.0195 43.9913 44.5095 43.4813 44.3095C42.9813 44.1095 42.4713 44.2095 42.0713 44.6095L38.6413 48.0395C38.5413 48.1395 38.4413 48.1395 38.3413 48.0395C38.2413 47.9395 38.2413 47.8395 38.3413 47.7395L43.2813 42.7995H53.6613L58.6013 47.7395C58.668 47.8062 58.7013 47.8729 58.7013 47.9395C58.7013 48.1395 58.4013 48.2395 58.3013 48.0395H58.3113Z" fill="#001452"/>
<path id="Vector_3" d="M22.2211 17.8884C27.0611 17.8884 31.0911 13.9584 31.0911 9.01844C31.0911 4.07844 27.1611 0.148438 22.2211 0.148438C17.2811 0.148438 13.3511 4.17844 13.3511 9.11844C13.3511 14.0584 17.2811 17.8884 22.2211 17.8884Z" fill="#DBDAFD"/>
<path id="Vector_4" d="M22.2211 17.8884C27.0611 17.8884 31.0911 13.9584 31.0911 9.01844C31.0911 4.07844 27.1611 0.148438 22.2211 0.148438C17.2811 0.148438 13.3511 4.17844 13.3511 9.11844C13.3511 14.0584 17.2811 17.8884 22.2211 17.8884ZM22.2211 2.76844C25.7511 2.76844 28.5711 5.58844 28.5711 9.11844C28.5711 12.6484 25.7511 15.4684 22.2211 15.4684C18.6911 15.4684 15.8711 12.6484 15.8711 9.11844C15.8711 5.58844 18.6911 2.76844 22.2211 2.76844Z" fill="#001452"/>
<path id="Vector_5" d="M41.2812 38.2602C41.9912 37.8602 42.0912 37.8602 42.3912 37.6502C42.9912 37.0502 43.3012 36.2402 43.3012 35.4302C43.3012 34.3202 42.7012 33.1102 41.4912 31.9002L32.5212 20.9102C32.3212 20.6102 31.9212 20.4102 31.5112 20.4102H14.0512C13.7512 20.4102 13.4512 20.5102 13.1412 20.8102L1.96121 31.9102C0.251211 33.6202 0.251211 36.4502 1.96121 38.1602C3.67121 39.8702 6.50121 39.8702 8.21121 38.1602L13.2512 33.1202V59.5402C13.2512 60.2502 13.8512 60.8502 14.5612 60.8502H20.9112C21.6212 60.8502 22.2212 60.2502 22.2212 59.5402V44.4202H24.2412V59.5402C24.2412 60.2502 24.8412 60.8502 25.5512 60.8502H31.1012C31.8112 60.8502 32.4112 60.2502 32.4112 59.5402V34.0302C35.3312 38.1602 35.1312 37.9602 35.3312 38.1602C36.1412 38.9702 37.2512 39.4702 38.4612 39.4702C39.3712 39.4702 40.4812 39.0702 41.2812 38.2602Z" fill="#DBDAFD"/>
<path id="Vector_6" d="M41.2812 38.2602C41.9912 37.8602 42.0912 37.8602 42.3912 37.6502C42.9912 37.0502 43.3012 36.2402 43.3012 35.4302C43.3012 34.3202 42.7012 33.1102 41.4912 31.9002L32.5212 20.9102C32.3212 20.6102 31.9212 20.4102 31.5112 20.4102H14.0512C13.7512 20.4102 13.4512 20.5102 13.1412 20.8102L1.96121 31.9102C0.251211 33.6202 0.251211 36.4502 1.96121 38.1602C3.67121 39.8702 6.50121 39.8702 8.21121 38.1602L13.2512 33.1202V59.5402C13.2512 60.2502 13.8512 60.8502 14.5612 60.8502H20.9112C21.6212 60.8502 22.2212 60.2502 22.2212 59.5402V44.4202H24.2412V59.5402C24.2412 60.2502 24.8412 60.8502 25.5512 60.8502H31.1012C31.8112 60.8502 32.4112 60.2502 32.4112 59.5402V34.0302C35.3312 38.1602 35.1312 37.9602 35.3312 38.1602C36.1412 38.9702 37.2512 39.4702 38.4612 39.4702C39.3712 39.4702 40.4812 39.0702 41.2812 38.2602ZM32.1112 29.2902C31.8112 28.8902 31.2012 28.6902 30.7012 28.7902C30.2012 28.9902 29.7912 29.3902 29.7912 30.0002V58.2302H26.7712V43.1102C26.7712 42.4002 26.1712 41.8002 25.4612 41.8002H20.9212C20.2112 41.8002 19.6112 42.4002 19.6112 43.1102V58.2302H15.7812V30.1002C15.7812 29.6002 15.4812 29.0902 14.9712 28.8902C14.4712 28.6902 13.9612 28.7902 13.5612 29.1902L6.30121 36.4502C5.90121 36.8502 5.49121 36.9502 4.99121 36.9502C3.98121 36.9502 3.07121 36.1402 3.07121 35.0302C3.07121 34.5302 3.27121 34.0202 3.57121 33.7202L14.5612 22.9302H30.8912C40.0612 34.3202 39.4612 33.6202 39.5612 33.7202C40.5712 34.7302 40.6712 35.3302 40.6712 35.5302C40.6712 35.5968 40.6379 35.6968 40.5712 35.8302C39.9712 36.1302 39.7612 36.2302 39.5612 36.4302C38.8512 37.1402 37.7512 37.1402 36.9412 36.5302L32.1012 29.2702L32.1112 29.2902Z" fill="#001452"/>
</g>
</g>
</svg>
