<svg width="60" height="58" viewBox="0 0 60 58" fill="none" xmlns="http://www.w3.org/2000/svg">
<g id="447, Curious, exclamation, eye, knowledge, mark">
<g id="Group">
<path id="Vector" d="M59.1699 19.6581C54.1199 8.04813 42.7099 0.578125 29.9999 0.578125C17.2899 0.578125 5.96988 8.04813 0.829883 19.6581C0.729883 19.9581 0.729883 20.3681 0.829883 20.6681C5.06988 30.4581 13.9499 37.3181 24.1499 39.2381V47.2081C24.1499 47.9181 24.7599 48.5181 25.4599 48.5181C26.1599 48.5181 26.7699 47.9081 26.7699 47.2081V39.6381C40.5999 41.0481 53.6199 33.3781 59.1699 20.7581C59.2699 20.3581 59.2699 20.0481 59.1699 19.6481V19.6581Z" fill="#DBDAFD"/>
<path id="Vector_2" d="M59.1699 19.6581C54.1199 8.04813 42.7099 0.578125 29.9999 0.578125C17.2899 0.578125 5.96988 8.04813 0.829883 19.6581C0.729883 19.9581 0.729883 20.3681 0.829883 20.6681C5.06988 30.4581 13.9499 37.3181 24.1499 39.2381V47.2081C24.1499 47.9181 24.7599 48.5181 25.4599 48.5181C26.1599 48.5181 26.7699 47.9081 26.7699 47.2081V39.6381C40.5999 41.0481 53.6199 33.3781 59.1699 20.7581C59.2699 20.3581 59.2699 20.0481 59.1699 19.6481V19.6581ZM28.7899 37.2181L30.2999 36.4081C34.2399 36.3081 37.8699 34.7881 40.6999 31.9681C46.4499 26.1181 46.4499 16.6281 40.5999 10.7681C34.7499 4.91812 25.2599 4.91813 19.3999 10.6681C16.4699 13.4981 14.9599 17.3281 14.9599 21.3681C14.9599 22.0781 15.5699 22.6781 16.2699 22.6781C16.9699 22.6781 17.5799 22.0681 17.5799 21.3681C17.5799 14.4081 23.3299 8.74813 30.2999 8.84813C36.9599 8.94813 42.5099 14.4981 42.6099 21.1581C42.7099 28.1181 37.0599 33.8781 30.0899 33.8781C29.8899 33.8781 29.6899 33.8781 29.4799 33.9781L24.9399 36.2981C24.7399 36.3981 24.6399 36.4981 24.5399 36.5981C15.3499 34.8781 7.47988 28.7281 3.43988 20.0481C8.18988 9.65812 18.5899 2.99813 29.9999 2.99813C41.4099 2.99813 51.7999 9.65812 56.5499 20.0581C51.7099 30.8581 40.7999 37.7181 28.7899 37.2181Z" fill="#001452"/>
<path id="Vector_3" d="M29.9997 27.8275C34.1397 27.8275 37.5697 24.3975 37.5697 20.2575C37.5697 16.1175 34.1397 12.6875 29.9997 12.6875C25.8597 12.6875 22.4297 16.0175 22.4297 20.2575C22.4297 24.4975 25.8597 27.8275 29.9997 27.8275ZM29.2897 18.2375C29.2897 18.9475 28.6797 19.5475 27.9797 19.5475C27.2797 19.5475 26.6697 18.9375 26.6697 18.2375C26.6697 17.5375 27.2797 16.9275 27.9797 16.9275C28.6797 16.9275 29.2897 17.5375 29.2897 18.2375ZM35.0397 20.2575C35.0397 23.0875 32.8197 25.3075 29.9897 25.3075C27.1597 25.3075 25.0397 23.1875 24.9397 20.5675C25.6497 21.4775 26.7597 22.0775 27.9697 22.0775C30.0897 22.0775 31.8097 20.3575 31.8097 18.2375C31.8097 17.0275 31.1997 15.9175 30.2997 15.2075C32.9197 15.3075 35.0397 17.5275 35.0397 20.2575Z" fill="#001452"/>
<path id="Vector_4" d="M25.4499 49.7383C23.3299 49.7383 21.6099 51.4583 21.6099 53.5783C21.6099 55.6983 23.3299 57.4183 25.4499 57.4183C27.5699 57.4183 29.2899 55.6983 29.2899 53.5783C29.2899 51.4583 27.5699 49.7383 25.4499 49.7383ZM25.4499 54.7883C24.7399 54.7883 24.1399 54.1783 24.1399 53.4783C24.1399 52.7783 24.7499 52.1683 25.4499 52.1683C26.1499 52.1683 26.7599 52.7783 26.7599 53.4783C26.7599 54.1783 26.1499 54.7883 25.4499 54.7883Z" fill="#001452"/>
</g>
</g>
</svg>
