<svg width="58" height="61" viewBox="0 0 58 61" fill="none" xmlns="http://www.w3.org/2000/svg">
<g id="Group 467">
<circle id="Ellipse 23" cx="10.603" cy="10" r="7" fill="#DBDAFD"/>
<circle id="Ellipse 24" cx="46.603" cy="10" r="7" fill="#DBDAFD"/>
<circle id="Ellipse 25" cx="29.603" cy="17" r="7" fill="white"/>
<path id="Vector 36" d="M3.60303 22L7.60303 17.5H14.103L18.603 22L20.103 25V44L17.103 46V60H5.10303L4.60303 46L2.10303 44V25L3.60303 22Z" fill="#DBDAFD"/>
<path id="Vector 37" d="M40.103 21.5L44.103 17H50.603L55.103 21.5L56.603 24.5V43.5L53.603 45.5V59.5H41.603L41.103 45.5L38.603 43.5V24.5L40.103 21.5Z" fill="#DBDAFD"/>
<g id="Group">
<path id="Vector" d="M15.9887 15.8485C18.981 13.0961 19.1755 8.43899 16.423 5.44665C13.6706 2.4543 9.01348 2.25985 6.02114 5.01231C3.0288 7.76478 2.83434 12.4219 5.58681 15.4142C8.33927 18.4065 12.9964 18.601 15.9887 15.8485Z" stroke="#001452" stroke-width="2" stroke-miterlimit="10" stroke-linecap="round" stroke-linejoin="round"/>
<path id="Vector_2" d="M8.7632 17.4297L4.87222 20.6461C3.08315 22.1223 2.05664 24.322 2.05664 26.639V43.64C2.05664 44.8034 2.99517 45.7419 4.15855 45.7419C5.32193 45.7419 6.26046 44.8034 6.26046 43.64V28.3889" stroke="#001452" stroke-width="2" stroke-miterlimit="10" stroke-linecap="round" stroke-linejoin="round"/>
<path id="Vector_3" d="M16.9653 45.5508V60.0002" stroke="#001452" stroke-width="2" stroke-miterlimit="10" stroke-linecap="round" stroke-linejoin="round"/>
<path id="Vector_4" d="M4.87207 45.5977V59.9982" stroke="#001452" stroke-width="2" stroke-miterlimit="10" stroke-linecap="round" stroke-linejoin="round"/>
<path id="Vector_5" d="M11.002 46.7227V59.9989" stroke="#001452" stroke-width="2" stroke-miterlimit="10" stroke-linecap="round" stroke-linejoin="round"/>
<path id="Vector_6" d="M13.2109 17.4297L17.1019 20.6461C18.891 22.1223 19.9175 24.322 19.9175 26.639V43.64C19.9175 44.8034 18.979 45.7419 17.8156 45.7419C16.6522 45.7419 15.7137 44.8034 15.7137 43.64V28.3889" stroke="#001452" stroke-width="2" stroke-miterlimit="10" stroke-linecap="round" stroke-linejoin="round"/>
<path id="Vector_7" d="M52.4133 15.3854C55.1657 12.393 54.9713 7.73596 51.9789 4.98349C48.9866 2.23103 44.3295 2.42548 41.577 5.41782C38.8246 8.41017 39.019 13.0673 42.0114 15.8197C45.0037 18.5722 49.6608 18.3777 52.4133 15.3854Z" stroke="#001452" stroke-width="2" stroke-miterlimit="10" stroke-linecap="round" stroke-linejoin="round"/>
<path id="Vector_8" d="M44.7695 17.4297L40.8786 20.6461C39.0895 22.1223 38.063 24.322 38.063 26.639V43.64C38.063 44.8034 39.0015 45.7419 40.1649 45.7419C41.3283 45.7419 42.2668 44.8034 42.2668 43.64V28.3889" stroke="#001452" stroke-width="2" stroke-miterlimit="10" stroke-linecap="round" stroke-linejoin="round"/>
<path id="Vector_9" d="M52.9717 45.5508V60.0002" stroke="#001452" stroke-width="2" stroke-miterlimit="10" stroke-linecap="round" stroke-linejoin="round"/>
<path id="Vector_10" d="M40.8784 45.5977V59.9982" stroke="#001452" stroke-width="2" stroke-miterlimit="10" stroke-linecap="round" stroke-linejoin="round"/>
<path id="Vector_11" d="M47.0083 46.7227V59.9989" stroke="#001452" stroke-width="2" stroke-miterlimit="10" stroke-linecap="round" stroke-linejoin="round"/>
<path id="Vector_12" d="M49.2173 17.4297L53.1083 20.6461C54.8973 22.1223 55.9238 24.322 55.9238 26.639V43.64C55.9238 44.8034 54.9853 45.7419 53.8219 45.7419C52.6586 45.7419 51.72 44.8034 51.72 43.64V28.3889" stroke="#001452" stroke-width="2" stroke-miterlimit="10" stroke-linecap="round" stroke-linejoin="round"/>
<path id="Vector_13" d="M28.9705 24.61C33.0794 24.61 36.4103 21.2791 36.4103 17.1702C36.4103 13.0614 33.0794 9.73047 28.9705 9.73047C24.8617 9.73047 21.5308 13.0614 21.5308 17.1702C21.5308 21.2791 24.8617 24.61 28.9705 24.61Z" stroke="#001452" stroke-width="2" stroke-miterlimit="10" stroke-linecap="round" stroke-linejoin="round"/>
<path id="Vector_14" d="M31.8648 14.1953L26.0283 20.1686" stroke="#001452" stroke-width="2" stroke-miterlimit="10" stroke-linecap="round" stroke-linejoin="round"/>
<path id="Vector_15" d="M26.0283 14.1953L31.8648 20.1686" stroke="#001452" stroke-width="2" stroke-miterlimit="10" stroke-linecap="round" stroke-linejoin="round"/>
</g>
</g>
</svg>
