<svg width="46" height="46" viewBox="0 0 46 46" fill="none" xmlns="http://www.w3.org/2000/svg">
<g id="Group 4">
<path id="Vector" d="M37.6451 14.6222C37.0969 14.0741 36.0828 14.2568 35.7996 14.9877C34.3287 18.3954 29.6328 19.1355 27.0473 16.55C24.3795 13.8822 25.2018 9.36902 28.6095 7.79762C29.3496 7.43218 29.5323 6.50943 28.975 5.95214L23.3654 0.342602C22.9086 -0.114201 22.1686 -0.114201 21.7027 0.342602L17.0981 4.94717C15.7186 3.01033 13.4163 1.81351 10.9313 1.81351C6.41807 1.81351 3.01033 5.68719 3.28441 9.91718C3.37577 12.2195 4.57259 14.339 6.41807 15.7186L0.342602 21.7118C-0.114201 22.1686 -0.114201 22.9086 0.342602 23.3654C0.991261 24.0141 20.9718 43.9946 22.6346 45.6574C23.0914 46.1142 23.8314 46.1142 24.2882 45.6574L45.6574 24.2882C46.1142 23.8314 46.1142 23.0914 45.6574 22.6346L37.6451 14.6222Z" fill="#DBDAFD"/>
<path id="Vector_2" d="M37.6451 14.6222C37.0969 14.0741 36.0828 14.2568 35.7996 14.9877C34.3287 18.3954 29.6328 19.1355 27.0473 16.55C24.3795 13.8822 25.2018 9.36902 28.6095 7.79762C29.3496 7.43217 29.5323 6.50943 28.975 5.95214L23.3654 0.342602C22.9086 -0.114201 22.1686 -0.114201 21.7027 0.342602L17.0981 4.94717C15.7186 3.01033 13.4163 1.81351 10.9313 1.81351C6.41807 1.81351 3.01033 5.68719 3.28441 9.91718C3.37577 12.2195 4.57259 14.339 6.41807 15.7186L0.342602 21.7118C-0.114201 22.1686 -0.114201 22.9086 0.342602 23.3654C0.991261 24.0141 20.9718 43.9946 22.6346 45.6574C23.0914 46.1142 23.8314 46.1142 24.2882 45.6574L45.6574 24.2882C46.1142 23.8314 46.1142 23.0914 45.6574 22.6346L37.6451 14.6222ZM23.4568 43.2729L20.8804 40.6965L34.6941 26.8828C35.1509 26.426 35.1509 25.686 34.6941 25.2292C34.2373 24.7724 33.4973 24.7724 33.0405 25.2292L19.2268 39.0429L2.73625 22.5432L9.09494 16.1845C9.65224 15.6272 9.46038 14.6222 8.72949 14.339C6.88401 13.5076 5.68719 11.6713 5.59583 9.73446C5.41311 6.87488 7.80675 4.02443 10.9404 4.02443C13.1513 4.02443 14.9968 5.31261 15.8191 7.24945C16.1845 7.98947 17.1073 8.17219 17.6645 7.6149L22.4518 2.82761L26.225 6.60079C22.4518 9.35988 21.9859 14.8872 25.3023 18.2036C28.6187 21.52 34.2373 20.9627 36.9051 17.2808L43.0719 23.4568L23.4568 43.2638V43.2729Z" fill="#001452"/>
</g>
</svg>
