<svg width="62" height="43" viewBox="0 0 62 43" fill="none" xmlns="http://www.w3.org/2000/svg">
<g id="D - 706, Eye, face, human, vision">
<g id="Group">
<path id="Vector" d="M61.1899 20.9013C57.7499 14.7013 53.2999 9.50134 48.2399 5.90134C37.7199 -1.49866 24.7699 -1.79866 13.7399 5.90134C8.6899 9.50134 4.2399 14.6013 0.799902 20.9013C0.599902 21.3013 0.599902 21.7013 0.799902 22.1013C4.2399 28.3013 8.6899 33.5013 13.7499 37.1013C24.2699 44.5013 37.2199 44.8013 48.2499 37.1013C53.3099 33.5013 57.7599 28.4013 61.1999 22.1013C61.3999 21.7013 61.3999 21.3013 61.1999 20.9013H61.1899ZM3.3299 21.5013C6.1599 16.5013 9.5999 12.4013 13.4499 9.30134C8.1899 16.6013 8.1899 26.4013 13.4499 33.7013C9.4999 30.6013 6.1699 26.5013 3.3299 21.5013ZM48.5499 33.7013C53.8099 26.4013 53.8099 16.6013 48.5499 9.30134C52.3899 12.4013 55.8299 16.5013 58.6699 21.5013C55.7399 26.5013 52.3999 30.6013 48.5499 33.7013Z" fill="#DBDAFD"/>
<path id="Vector_2" d="M61.1899 20.9013C57.7499 14.7013 53.2999 9.50134 48.2399 5.90134C37.7199 -1.49866 24.7699 -1.79866 13.7399 5.90134C8.6899 9.50134 4.2399 14.6013 0.799902 20.9013C0.599902 21.3013 0.599902 21.7013 0.799902 22.1013C4.2399 28.3013 8.6899 33.5013 13.7499 37.1013C24.2699 44.5013 37.2199 44.8013 48.2499 37.1013C53.3099 33.5013 57.7599 28.4013 61.1999 22.1013C61.3999 21.7013 61.3999 21.3013 61.1999 20.9013H61.1899ZM49.9599 21.5013C49.9599 31.8013 41.4599 40.3013 30.9399 40.3013C20.4199 40.3013 11.9299 31.9013 11.9299 21.5013C11.9299 11.1013 20.4299 2.70134 30.9499 2.70134C41.3699 2.80134 49.9699 11.2013 49.9699 21.5013H49.9599ZM3.3299 21.5013C6.1599 16.5013 9.5999 12.4013 13.4499 9.30134C8.1899 16.6013 8.1899 26.4013 13.4499 33.7013C9.4999 30.6013 6.1699 26.5013 3.3299 21.5013ZM48.5499 33.7013C53.8099 26.4013 53.8099 16.6013 48.5499 9.30134C52.3899 12.4013 55.8299 16.5013 58.6699 21.5013C55.7399 26.5013 52.3999 30.6013 48.5499 33.7013Z" fill="#001452"/>
<path id="Vector_3" d="M30.9499 29C35.0999 29 38.5399 25.6 38.5399 21.5C38.5399 17.4 35.0999 14 30.9499 14C26.7999 14 23.3599 17.4 23.3599 21.5C23.3599 25.6 26.7999 29 30.9499 29ZM30.9499 16.5C33.7799 16.5 36.0099 18.7 36.0099 21.5C36.0099 24.3 33.7799 26.5 30.9499 26.5C28.1199 26.5 25.8899 24.3 25.8899 21.5C25.8899 18.7 28.1199 16.5 30.9499 16.5Z" fill="#001452"/>
</g>
</g>
</svg>
