<svg width="58" height="60" viewBox="0 0 58 60" fill="none" xmlns="http://www.w3.org/2000/svg">
<g id="Group 1">
<path id="Vector" d="M28.9998 0.980469C12.9498 0.980469 0.0297852 14.0005 0.0297852 30.0505C0.0297852 46.1005 13.0498 59.0205 28.9998 59.0205C44.9498 59.0205 57.9698 46.0005 57.9698 30.0505C57.9698 14.1005 45.0498 0.980469 28.9998 0.980469Z" fill="#DBDAFD"/>
<path id="Vector_2" d="M28.9998 0.980469C12.9498 0.980469 0.0297852 14.0005 0.0297852 30.0505C0.0297852 46.1005 13.0498 59.0205 28.9998 59.0205C44.9498 59.0205 57.9698 46.0005 57.9698 30.0505C57.9698 14.1005 45.0498 0.980469 28.9998 0.980469ZM47.7698 48.7205C37.4698 59.0105 20.6198 59.0105 10.3198 48.7205C5.26978 43.6705 2.54979 37.1105 2.54979 29.9505C2.54979 15.3105 14.3598 3.50047 28.9998 3.50047C36.0698 3.50047 42.7298 6.23047 47.7698 11.2705C58.0698 21.5705 58.0698 38.3205 47.7698 48.7205Z" fill="#001452"/>
<path id="Vector_3" d="M45.3497 16.3207C42.9297 18.7407 24.6597 36.9107 22.4397 39.1307C21.9397 39.6307 21.9397 40.4407 22.4397 40.9507C22.9397 41.4607 23.7497 41.4507 24.2597 40.9507L31.4297 33.7807H45.3597C46.0697 33.7807 46.6697 33.1707 46.6697 32.4707V26.1107C46.6697 25.4007 46.0597 24.8007 45.3597 24.8007H40.2097L45.9597 19.0507C50.9097 26.9207 49.8997 37.4207 43.1297 44.0807C36.4697 50.7407 25.8697 51.8507 17.9997 46.9107L20.3197 44.5907C20.8197 44.0907 20.8197 43.2807 20.3197 42.7707C19.8197 42.2707 19.0097 42.2707 18.4997 42.7707L15.3697 46.3007C14.8697 46.8007 14.8697 47.7107 15.4697 48.2207C19.4097 51.1507 24.1497 52.6607 28.9997 52.6607C41.0097 52.6607 50.7997 43.3707 51.6097 31.5607C52.0097 26.1107 50.3997 20.7607 47.1697 16.4207C46.7697 15.8107 45.8597 15.7107 45.3497 16.3207ZM44.1397 27.4207V31.2607H41.6197V30.0507C41.6197 29.3407 41.0097 28.7407 40.4097 28.7407C39.6997 28.7407 39.0997 29.3507 39.0997 30.0507V31.2607H33.9497L37.6797 27.4207H44.1397Z" fill="#001452"/>
<path id="Vector_4" d="M42.62 13.5992C43.12 13.0992 43.12 12.1892 42.52 11.6792C40.4 10.1692 38.18 8.94922 35.66 8.24922C34.95 8.04922 34.25 8.44922 34.05 9.05922C33.85 9.76922 34.25 10.4692 34.86 10.6692C36.58 11.1692 38.19 11.9792 39.71 12.8892L27.8 24.8992H12.66C11.95 24.8992 11.35 25.5092 11.35 26.2092V32.4692C11.35 33.1792 11.96 33.7792 12.66 33.7792H19.02L11.95 40.8492C7.00003 32.9792 8.01003 22.4792 14.78 15.8192C18.31 12.2892 22.96 10.2692 27.9 9.96922C28.61 9.96922 29.11 9.35922 29.11 8.65922C29.11 7.95922 28.5 7.44922 27.8 7.44922C16.39 8.15922 7.31003 17.1392 6.50003 28.5492C6.10003 33.9992 7.71003 39.3492 10.94 43.6892C11.44 44.2992 12.25 44.3992 12.86 43.7892C22.45 33.7992 36.58 19.6692 42.64 13.6092L42.62 13.5992ZM13.86 31.2592V27.4192H25.27L21.43 31.2592H13.86Z" fill="#001452"/>
</g>
</svg>
