<svg width="54" height="54" viewBox="0 0 54 54" fill="none" xmlns="http://www.w3.org/2000/svg">
<g id="Group 29">
<path id="Vector" d="M39.3849 0.714824C43.306 0.854409 46.9777 2.49545 49.7239 5.3357C52.4689 8.17474 53.9867 11.8992 53.9995 15.824V15.8243C54.0061 17.9461 54.0218 22.9152 50.6488 29.5373C46.5438 37.5981 38.8132 45.4416 27.6719 52.8493L27.6537 52.8614L27.6519 52.8626L27.0001 53.296L26.3282 52.8493L26.3228 52.8456L26.3173 52.842C15.1821 45.4361 7.4551 37.5957 3.3513 29.5373C-0.0216633 22.9152 -0.00602831 17.9461 0.000647983 15.8243L0.000648832 15.824C0.0133936 11.8992 1.53184 8.17413 4.27681 5.3357C7.023 2.49545 10.6947 0.854409 14.6158 0.714824C19.4491 0.543074 24.0445 2.68115 26.9946 6.38198C29.9459 2.68055 34.5437 0.54186 39.3849 0.714824Z" fill="#DBDAFD"/>
<path id="Vector_2" d="M49.7239 5.3357C46.9777 2.49545 43.306 0.854409 39.3849 0.714824C34.5437 0.54186 29.9459 2.68055 26.9946 6.38198C24.0445 2.68115 19.4491 0.543074 14.6158 0.714824C10.6947 0.854409 7.023 2.49545 4.27681 5.3357C1.53184 8.17413 0.0133936 11.8992 0.000648832 15.824C-0.00602698 17.9457 -0.0218062 22.9149 3.3513 29.5373C7.4551 37.5957 15.1821 45.4361 26.3173 52.842C26.3191 52.8432 26.321 52.8444 26.3228 52.8456C26.3246 52.8469 26.3264 52.8481 26.3282 52.8493L27.0001 53.296L27.6519 52.8626C27.6519 52.8626 27.6531 52.862 27.6537 52.8614L27.6719 52.8493C38.8132 45.4416 46.5438 37.5981 50.6488 29.5373C54.0219 22.9149 54.0061 17.9457 53.9995 15.824C53.9867 11.8992 52.4683 8.17474 49.7233 5.3357H49.7239ZM2.42822 15.8313C2.44946 9.07415 7.95579 3.3809 14.702 3.14057C14.8543 3.13511 15.0067 3.13268 15.1584 3.13268C19.3544 3.13268 23.2828 5.19551 25.6285 8.61716L23.2871 14.2831C23.0316 14.9015 23.3247 15.6104 23.9425 15.8671L30.2245 18.4816L28.6678 23.3033C28.4785 23.8896 28.7588 24.525 29.3196 24.7805L34.6099 27.1911L23.6221 36.5251C23.1809 36.9002 23.0656 37.5344 23.3472 38.0405L25.5217 41.9465L23.4965 44.2478C23.1985 44.5858 23.1129 45.0616 23.2737 45.4822L24.4718 48.6199C9.8056 38.1164 2.39241 27.0982 2.42822 15.8313ZM27.5887 49.9769L25.8039 45.3008L27.9116 42.906C28.2509 42.52 28.3109 41.9628 28.0609 41.5137L25.9538 37.7298L37.6383 27.8034C37.9551 27.5346 38.1116 27.1225 38.0546 26.711C37.9976 26.2996 37.7336 25.9464 37.3555 25.774L31.3102 23.0199L32.8778 18.1636C33.072 17.5621 32.7722 16.9128 32.189 16.67L25.9926 14.0913L28.0767 9.04745C30.4606 5.24042 34.7513 2.97853 39.2981 3.14057C46.0443 3.3809 51.5507 9.07415 51.5719 15.8313C51.6089 27.5838 43.5415 39.0668 27.5887 49.9769Z" fill="#001452"/>
<g id="Group 463">
<path id="Vector_3" d="M17.37 21H37.6C41.04 21 43.87 23.7 43.87 27.2C43.87 30.7 41.04 33.5 37.6 33.5H17.37C13.83 33.5 11 30.8 11 27.3C11 23.8 13.93 21 17.37 21Z" fill="#DBDAFD"/>
<path id="Vector_4" d="M23.6401 24.6992C24.3701 24.6992 24.9601 25.2792 24.9601 25.9992C24.9601 26.7192 24.3701 27.2992 23.6401 27.2992C22.9101 27.2992 22.3301 26.7192 22.3301 25.9992C22.3301 25.2792 22.9201 24.6992 23.6401 24.6992Z" fill="#001452"/>
<path id="Vector_5" d="M23.6401 27.1992C24.3701 27.1992 24.9601 27.7792 24.9601 28.4992C24.9601 29.2192 24.3701 29.7992 23.6401 29.7992C22.9101 29.7992 22.3301 29.2192 22.3301 28.4992C22.3301 27.7792 22.9201 27.1992 23.6401 27.1992Z" fill="#001452"/>
<path id="Vector_6" d="M26.1701 24.6992C26.9001 24.6992 27.4801 25.2792 27.4801 25.9992C27.4801 26.7192 26.8901 27.2992 26.1701 27.2992C25.4501 27.2992 24.8501 26.7192 24.8501 25.9992C24.8501 25.2792 25.4401 24.6992 26.1701 24.6992Z" fill="#001452"/>
<path id="Vector_7" d="M26.1701 27.1992C26.9001 27.1992 27.4801 27.7792 27.4801 28.4992C27.4801 29.2192 26.8901 29.7992 26.1701 29.7992C25.4501 29.7992 24.8501 29.2192 24.8501 28.4992C24.8501 27.7792 25.4401 27.1992 26.1701 27.1992Z" fill="#001452"/>
<path id="Vector_8" d="M28.7001 24.6992C29.4301 24.6992 30.0101 25.2792 30.0101 25.9992C30.0101 26.7192 29.4201 27.2992 28.7001 27.2992C27.9801 27.2992 27.3901 26.7192 27.3901 25.9992C27.3901 25.2792 27.9801 24.6992 28.7001 24.6992Z" fill="#001452"/>
<path id="Vector_9" d="M28.7001 27.1992C29.4301 27.1992 30.0101 27.7792 30.0101 28.4992C30.0101 29.2192 29.4201 29.7992 28.7001 29.7992C27.9801 29.7992 27.3901 29.2192 27.3901 28.4992C27.3901 27.7792 27.9801 27.1992 28.7001 27.1992Z" fill="#001452"/>
<path id="Vector_10" d="M31.2299 24.6992C31.9599 24.6992 32.5499 25.2792 32.5499 25.9992C32.5499 26.7192 31.9599 27.2992 31.2299 27.2992C30.4999 27.2992 29.9199 26.7192 29.9199 25.9992C29.9199 25.2792 30.5099 24.6992 31.2299 24.6992Z" fill="#001452"/>
<path id="Vector_11" d="M31.23 27.3008C31.9 27.3008 32.44 27.8408 32.44 28.5008C32.44 29.1608 31.9 29.7008 31.23 29.7008C30.56 29.7008 30.02 29.1608 30.02 28.5008C30.02 27.8408 30.56 27.3008 31.23 27.3008Z" fill="#001452"/>
<path id="Vector_12" d="M37.6 21H17.37C13.93 21 11 23.8 11 27.3C11 30.8 13.83 33.5 17.37 33.5H37.6C41.04 33.5 43.87 30.7 43.87 27.2C43.87 23.7 41.04 21 37.6 21ZM33.76 23.5V31H21.12V23.5H33.76ZM13.53 27.2C13.53 25.1 15.25 23.4 17.37 23.4H18.68V31H17.37C15.25 31 13.53 29.3 13.53 27.2ZM37.61 31H36.3V23.5H37.61C39.73 23.5 41.45 25.2 41.45 27.3C41.35 29.3 39.63 31 37.61 31Z" fill="#001452"/>
</g>
</g>
</svg>
