<svg width="60" height="56" viewBox="0 0 60 56" fill="none" xmlns="http://www.w3.org/2000/svg">
<path id="Vector" d="M1.37097 11.4857L1.37153 11.4848C2.04715 10.4753 3.41289 10.2055 4.42192 10.8799C4.42197 10.8799 4.42203 10.8799 4.42209 10.88L8.65207 13.7062L1.37097 11.4857ZM1.37097 11.4857C0.696581 12.4955 0.966385 13.8599 1.97811 14.5353L1.37097 11.4857ZM9.26016 16.7559L9.25849 16.7584C8.58219 17.7656 7.21879 18.037 6.20893 17.3621C6.20887 17.3621 6.20882 17.362 6.20876 17.362L1.97878 14.5357L9.26016 16.7559ZM9.26016 16.7559C9.93215 15.7485 9.66559 14.3828 8.65274 13.7067L9.26016 16.7559ZM49.1286 1.99132L49.1294 1.99187C50.1376 2.66579 50.4125 4.03102 49.7347 5.0421L49.7349 5.04176L48.9036 4.48602L49.7338 5.04345L46.9081 9.2704C46.908 9.27055 46.9079 9.27069 46.9078 9.27083L46.9076 9.27122L46.0762 8.71547L49.1286 1.99132ZM49.1286 1.99132C48.1175 1.31694 46.7537 1.58954 46.0789 2.59794L46.0786 2.59826M49.1286 1.99132L46.0786 2.59826M46.0786 2.59826L43.2524 6.82494M46.0786 2.59826L43.2524 6.82494M11.4259 2.82324C10.8754 3.19128 10.7266 3.93456 11.0949 4.48602L11.4259 2.82324ZM11.4259 2.82324L11.4259 2.82323L11.4259 2.82324ZM43.2524 6.82494C43.2521 6.82531 43.2519 6.82568 43.2516 6.82604L43.2524 6.82494ZM13.0922 9.27138L13.0924 9.27166L15.9171 7.38238L16.7482 6.82636L16.7479 6.82578L13.9204 2.59919C13.9204 2.59915 13.9204 2.59912 13.9204 2.59909C13.2463 1.58879 11.8816 1.31732 10.8711 1.99132L10.8702 1.99188C9.86133 2.66626 9.58791 4.03006 10.2633 5.04137L10.2636 5.04193L13.0922 9.27138ZM58.6307 11.4869L58.629 11.4844C57.9519 10.4737 56.5874 10.2057 55.5788 10.88L51.3488 13.7062C50.3368 14.3812 50.0659 15.7476 50.7415 16.7571L50.7418 16.7575C51.4189 17.7682 52.7834 18.0362 53.7921 17.362L58.0227 14.5353L58.0229 14.5352C59.0332 13.8598 59.3026 12.4963 58.6307 11.4869ZM52.4359 5.07223L53.1428 5.77955L52.4359 5.07223L47.6377 9.86753C46.7779 10.7268 46.7779 12.118 47.6377 12.9773C48.4972 13.8363 49.8881 13.8363 50.7476 12.9773L55.5459 8.18201C56.4057 7.3227 56.4057 5.93154 55.5459 5.07223C54.6864 4.21325 53.2954 4.21325 52.4359 5.07223ZM4.81443 36.5621L6.77337 37.744L6.31032 35.5034C5.98314 33.9203 5.80921 32.2822 5.80921 30.6036C5.80921 28.9251 5.98314 27.2869 6.31032 25.7038L6.77337 23.4633L4.81443 24.6452C2.78065 25.8722 1.41011 28.0943 1.41011 30.6036C1.41011 33.1129 2.78065 35.335 4.81443 36.5621ZM55.1852 24.6452L53.2263 23.4633L53.6893 25.7038C54.0165 27.2869 54.1904 28.9251 54.1904 30.6036C54.1904 32.2822 54.0165 33.9203 53.6893 35.5034L53.2263 37.744L55.1852 36.5621C57.2189 35.3351 58.5895 33.1142 58.5895 30.6036C58.5895 28.093 57.2189 25.8722 55.1852 24.6452ZM19.1014 24.7804L19.101 24.7801C19.0078 24.7243 18.9764 24.6036 19.0331 24.5081C19.0904 24.413 19.2124 24.3828 19.3074 24.4397L25.3051 28.0362C25.364 28.0715 25.4012 28.1369 25.4012 28.206C25.4012 28.2761 25.3643 28.3413 25.3046 28.3773C25.3045 28.3773 25.3044 28.3774 25.3043 28.3774L19.3074 31.9734L19.3071 31.9736C19.2123 32.0304 19.0895 31.999 19.0335 31.9057L19.033 31.9049C18.9773 31.8121 19.0063 31.69 19.1023 31.6322L23.3852 29.0636L24.8155 28.2058L23.385 27.3483L19.1014 24.7804ZM36.6144 27.3484L35.1842 28.2062L36.6146 29.0637L40.8981 31.6315C40.8981 31.6315 40.8982 31.6315 40.8982 31.6316C40.9933 31.6887 41.0231 31.8097 40.9666 31.9037L40.9661 31.9045C40.9103 31.9976 40.7883 32.0297 40.6918 31.9719L34.6945 28.3757C34.6357 28.3405 34.5985 28.275 34.5985 28.206C34.5985 28.1376 34.6352 28.071 34.6961 28.0341C34.6963 28.034 34.6965 28.0339 34.6966 28.0338L40.691 24.4393C40.691 24.4393 40.6911 24.4392 40.6912 24.4392C40.788 24.3815 40.9096 24.4132 40.9661 24.5063C41.0234 24.6018 40.9921 24.723 40.8986 24.779L40.898 24.7793L36.6144 27.3484ZM4.45379 5.07223C3.59395 5.93154 3.59395 7.3227 4.45379 8.18201L9.252 12.9773C10.1115 13.8363 11.5025 13.8363 12.362 12.9773C13.2218 12.118 13.2218 10.7268 12.362 9.86753L7.56374 5.07223C6.70424 4.21325 5.31329 4.21325 4.45379 5.07223ZM29.9998 54.3813C43.1192 54.3813 53.7913 43.7166 53.7913 30.6036C53.7913 17.4906 43.118 6.82594 29.9998 6.82594C16.8816 6.82594 6.20832 17.4906 6.20832 30.6036C6.20832 43.7166 16.8816 54.3813 29.9998 54.3813ZM37.3967 43.7907C37.3967 48.6554 33.9559 52.3813 29.9998 52.3813C26.0437 52.3813 22.603 48.6554 22.603 43.7907C22.603 38.926 26.0437 35.2001 29.9998 35.2001C33.9559 35.2001 37.3967 38.926 37.3967 43.7907Z" fill="#DBDAFD" stroke="#001452" stroke-width="2"/>
</svg>
