<svg width="52" height="53" viewBox="0 0 52 53" fill="none" xmlns="http://www.w3.org/2000/svg">
<g id="82, chat, love, heart">
<g id="Group">
<path id="Vector" d="M4.3299 52.1169C4.0299 52.1169 3.6199 51.9169 3.4199 51.7169C3.1199 51.3169 3.1199 50.8069 3.3199 50.4069L7.6599 43.0469C3.3199 38.4069 0.899902 32.3569 0.899902 25.9069C0.899902 19.4569 3.5199 12.8969 8.2599 8.15688C12.9999 3.41688 19.3499 0.796875 25.9999 0.796875C32.6499 0.796875 39.0099 3.41688 43.7399 8.15688C48.4799 12.8969 51.0999 19.2469 51.0999 25.8969C51.0999 32.5469 48.4799 38.9069 43.7399 43.6369C38.9999 48.3769 32.6499 50.9969 25.9999 50.9969C22.3699 50.9969 18.8399 50.1869 15.5099 48.7769L4.7199 52.2069C4.5199 52.1069 4.4199 52.1069 4.3199 52.1069L4.3299 52.1169Z" fill="#DBDAFD"/>
<path id="Vector_2" d="M4.3299 52.1169C4.0299 52.1169 3.6199 51.9169 3.4199 51.7169C3.1199 51.3169 3.1199 50.8069 3.3199 50.4069L7.6599 43.0469C3.3199 38.4069 0.899902 32.3569 0.899902 25.9069C0.899902 19.4569 3.5199 12.8969 8.2599 8.15688C12.9999 3.41688 19.3499 0.796875 25.9999 0.796875C32.6499 0.796875 39.0099 3.41688 43.7399 8.15688C48.4799 12.8969 51.0999 19.2469 51.0999 25.8969C51.0999 32.5469 48.4799 38.9069 43.7399 43.6369C38.9999 48.3769 32.6499 50.9969 25.9999 50.9969C22.3699 50.9969 18.8399 50.1869 15.5099 48.7769L4.7199 52.2069C4.5199 52.1069 4.4199 52.1069 4.3199 52.1069L4.3299 52.1169ZM25.8999 3.01688C13.2999 3.01688 3.1199 13.1969 3.1199 25.7969C3.1199 31.9469 5.5399 37.6969 9.8699 41.9269C10.2699 42.3269 10.3699 42.8369 10.0699 43.3369L6.8399 48.8869L15.2099 46.2669C15.5099 46.1669 15.8099 46.1669 16.0199 46.3669C19.1399 47.8769 22.3699 48.5869 25.8999 48.5869C38.4999 48.5869 48.6899 38.4069 48.6899 25.7969C48.6899 13.1869 38.5099 3.01688 25.8999 3.01688Z" fill="#001452"/>
<path id="Vector_3" d="M25.9997 40.6152C25.6997 40.6152 25.3897 40.5152 25.1897 40.3152C23.3697 38.5052 21.6597 36.8852 19.8497 35.2752C18.0397 33.6652 16.3197 32.0452 14.9097 30.5352C11.9897 27.4052 10.4697 24.5852 10.0697 21.5652C9.96973 21.0652 9.96973 20.5552 9.96973 20.0552C9.96973 15.2152 13.7997 11.2852 18.5397 11.2852C22.1697 11.2852 24.2897 12.9952 25.9997 15.7252C27.7097 13.0052 29.7297 11.2852 33.4597 11.2852C38.1997 11.2852 42.0297 15.2152 42.0297 20.0552C42.0297 20.5552 42.0297 21.0652 41.9297 21.5652C41.5297 24.5852 40.1197 27.3152 37.0897 30.5352C35.6797 32.0452 33.9697 33.6652 32.1497 35.2752C30.4397 36.8852 28.6197 38.5052 26.8097 40.3152C26.6097 40.4152 26.3097 40.6152 25.9997 40.6152ZM18.6397 13.5952C15.2097 13.5952 12.3897 16.4152 12.3897 19.9452C12.3897 20.3452 12.3897 20.7552 12.4897 21.1552C12.7897 23.6752 14.0997 25.9952 16.7197 28.8152C18.1297 30.3252 19.7497 31.8352 21.5597 33.4552C23.0697 34.7652 24.5797 36.1752 26.0997 37.6852C27.6097 36.1752 29.2197 34.7652 30.6397 33.4552C32.4497 31.8452 34.0697 30.3252 35.4797 28.8152C38.0997 26.0952 39.4097 23.6752 39.7197 21.1552C39.7197 20.7552 39.8197 20.3452 39.8197 19.9452C39.8197 16.4152 36.9997 13.5952 33.5697 13.5952C30.6497 13.5952 29.0297 14.9052 27.2197 18.6352C27.0197 19.0352 26.6097 19.2452 26.2097 19.2452C25.8097 19.2452 25.3997 18.9452 25.1997 18.6352C23.0797 14.9052 21.5697 13.5952 18.6497 13.5952H18.6397Z" fill="#001452"/>
<path id="Vector 14" d="M26 17.5L24 25.129H30L26 38" stroke="#001452" stroke-width="2" stroke-linejoin="round"/>
</g>
</g>
</svg>
