<svg width="62" height="54" viewBox="0 0 62 54" fill="none" xmlns="http://www.w3.org/2000/svg">
<g id="347, Alert, chat, talk">
<path id="Vector" d="M55.2149 1.80469H6.7749C4.1449 1.80469 2.0249 3.92469 2.0249 6.55469V37.3447C2.0249 39.9647 4.1449 42.0847 6.7649 42.0847H26.9549L31.0949 52.1747L35.2349 42.0847H55.4249C58.0449 42.0847 60.1649 39.9647 60.1649 37.3447V6.55469C60.0649 3.93469 57.8449 1.81469 55.2149 1.81469V1.80469Z" fill="#DBDAFD"/>
<path id="Vector_2" d="M36.0449 11.5944V11.8944L35.2349 23.1944C35.1349 25.3144 33.4149 26.9244 31.2949 26.9244C29.1749 26.9244 27.4549 25.3044 27.3549 23.1944L26.5449 11.7844C26.4449 9.06438 28.5649 6.73438 31.2849 6.73438C33.9049 6.83438 36.0249 8.95438 36.0249 11.5744L36.0449 11.5944Z" fill="white"/>
<path id="Vector_3" d="M31.2951 30.7773C33.4151 30.7773 35.1351 32.4973 35.1351 34.6073C35.1351 36.7173 33.4151 38.4473 31.2951 38.4473C29.1751 38.4473 27.4551 36.7273 27.4551 34.6073C27.4551 32.4873 29.1751 30.7773 31.2951 30.7773Z" fill="white"/>
<path id="Vector_4" d="M30.9948 53.4861C30.4948 53.4861 29.9848 53.1861 29.7848 52.6761L26.0548 43.3861H6.77484C3.44484 43.3861 0.714844 40.6661 0.714844 37.3261V6.55609C0.714844 3.21609 3.44484 0.496094 6.77484 0.496094H55.2248C58.5548 0.496094 61.2848 3.21609 61.2848 6.55609V37.3461C61.2848 40.6761 58.5548 43.4061 55.2248 43.4061H35.9448L32.2148 52.6961C32.0148 53.1961 31.5048 53.5061 31.0048 53.5061L30.9948 53.4861ZM6.77484 3.01609C4.85484 3.01609 3.24484 4.63609 3.24484 6.54609V37.3361C3.24484 39.2561 4.85484 40.8661 6.77484 40.8661H26.9648C27.4648 40.8661 27.9748 41.1661 28.1748 41.6761L31.1048 48.8461L34.0348 41.6761C34.2348 41.1761 34.6448 40.8661 35.2448 40.8661H55.4348C57.3548 40.8661 58.9648 39.2561 58.9648 37.3361V6.55609C58.9648 4.63609 57.3548 3.02609 55.4348 3.02609H6.77484V3.01609Z" fill="#001452" stroke="#001452" stroke-width="0.75"/>
<path id="Vector_5" d="M31.2949 28.2545C28.4649 28.2545 26.2449 26.0345 26.0449 23.3045L25.2349 12.0045C25.1349 10.2845 25.7349 8.77453 26.8549 7.56453C27.9649 6.35453 29.5849 5.64453 31.1949 5.64453C34.5249 5.64453 37.2549 8.36453 37.2549 11.7045V12.0045L36.4449 23.3045C36.3449 26.0345 34.0249 28.2545 31.2949 28.2545ZM27.7649 11.8045L28.5749 23.1045C28.6749 24.5145 29.8849 25.7245 31.3049 25.7245C32.7249 25.7245 33.9249 24.6145 34.0349 23.1045L34.8449 11.8045V11.6045C34.8449 9.68453 33.2249 8.07453 31.3149 8.07453C30.3049 8.07453 29.3949 8.47453 28.7949 9.18453C28.0849 9.89453 27.6849 10.8045 27.7849 11.8045H27.7649Z" fill="#001452" stroke="#001452" stroke-width="0.75"/>
<path id="Vector_6" d="M31.2946 39.6547C28.4646 39.6547 26.2446 37.4347 26.2446 34.6047C26.2446 31.7747 28.4646 29.5547 31.2946 29.5547C34.1246 29.5547 36.3446 31.7747 36.3446 34.6047C36.3446 37.4347 34.0246 39.6547 31.2946 39.6547ZM31.2946 32.0847C29.8846 32.0847 28.7746 33.1947 28.7746 34.6047C28.7746 36.0147 29.8846 37.1247 31.2946 37.1247C32.7046 37.1247 33.8146 36.0147 33.8146 34.6047C33.8146 33.1947 32.6046 32.0847 31.2946 32.0847Z" fill="#001452" stroke="#001452" stroke-width="0.75"/>
</g>
</svg>
