<svg width="46" height="46" viewBox="0 0 46 46" fill="none" xmlns="http://www.w3.org/2000/svg">
<g id="Group">
<path id="Vector" d="M33.3729 26.5359C34.7774 23.9121 35.5611 20.973 35.5611 17.8764C35.5611 8.02716 27.6617 0.00592041 17.9542 0.00592041C8.24668 0.00592041 0.35498 8.02716 0.35498 17.8764C0.35498 27.7257 8.25444 35.7469 17.9542 35.7469C21.0038 35.7469 23.8982 34.9511 26.4822 33.5249L37.3536 44.564C39.2315 46.4708 42.3587 46.4708 44.2366 44.564C46.1144 42.6572 46.1144 39.4818 44.2366 37.575L33.3651 26.5359H33.3729Z" fill="#DBDAFD"/>
<path id="Vector_2" d="M33.3729 26.5359C34.7774 23.9121 35.5611 20.973 35.5611 17.8764C35.5611 8.02716 27.6617 0.00592041 17.9542 0.00592041C8.24668 0.00592041 0.35498 8.02716 0.35498 17.8764C0.35498 27.7257 8.25444 35.7469 17.9542 35.7469C21.0038 35.7469 23.8982 34.9511 26.4822 33.5249L37.3536 44.564C39.2315 46.4708 42.3587 46.4708 44.2366 44.564C46.1144 42.6572 46.1144 39.4818 44.2366 37.575L33.3651 26.5359H33.3729ZM2.31045 17.8764C2.31045 9.05936 9.27097 1.99153 17.9542 1.99153C26.6374 1.99153 33.5979 9.05936 33.5979 17.8764C33.5979 26.6935 26.5598 33.7613 17.9542 33.7613C9.34857 33.7613 2.31045 26.7014 2.31045 17.8764ZM42.8398 43.1378C41.6681 44.3276 39.8678 44.3276 38.6961 43.1378L28.135 32.4139C29.7025 31.2241 31.107 29.7901 32.2787 28.2063L42.8398 38.9302C44.0115 40.12 44.0115 42.0268 42.8398 43.1378Z" fill="#001452"/>
<path id="Vector_3" d="M29.6946 17.8764C29.6946 11.2814 24.4567 5.96277 17.9618 5.96277C11.4669 5.96277 6.229 11.2814 6.229 17.8764C6.229 24.4715 11.4669 29.7901 17.9618 29.7901C24.4567 29.7901 29.6946 24.4715 29.6946 17.8764ZM8.17671 17.8764C8.17671 12.3924 12.561 7.94838 17.954 7.94838C20.538 7.94838 23.0367 8.98058 24.837 10.8874C28.6703 14.7798 28.6703 21.0597 24.837 24.9521C21.0036 28.8446 14.8191 28.8446 10.9935 24.9521C9.19324 23.0453 8.17671 20.5003 8.17671 17.8843V17.8764Z" fill="#001452"/>
<path id="Vector_4" d="M14.5164 12.9518C14.1285 12.5578 13.4999 12.5578 13.1119 12.9518C10.4503 15.6544 10.4503 20.0984 13.1119 22.8011C13.4999 23.195 14.1285 23.195 14.5164 22.8011C14.9044 22.4071 14.9044 21.7688 14.5164 21.3749C12.6386 19.4681 12.6386 16.2927 14.5164 14.3858C14.9044 13.9919 14.9044 13.3536 14.5164 12.9597V12.9518Z" fill="#001452"/>
<path id="Vector_5" d="M15.9985 10.8874C16.5572 10.8874 17.015 11.3523 17.015 11.9196C17.015 12.4869 16.5572 12.9518 15.9985 12.9518C15.4398 12.9518 14.9819 12.4869 14.9819 11.9196C14.9819 11.3523 15.4398 10.8874 15.9985 10.8874Z" fill="#001452"/>
</g>
</svg>
