<svg width="62" height="62" viewBox="0 0 62 62" fill="none" xmlns="http://www.w3.org/2000/svg">
<g id="_&#208;&#160;&#194;&#160;&#208;&#160;&#194;&#181;&#208;&#160;&#194;&#182;&#208;&#160;&#209;&#145;&#208;&#160;&#209;&#152;_&#208;&#160;&#209;&#145;&#208;&#160;&#194;&#183;&#208;&#160;&#209;&#149;&#208;&#160;&#194;&#187;&#208;&#161;&#208;&#143;&#208;&#161;&#226;&#128;&#160;&#208;&#160;&#209;&#145;&#208;&#160;&#209;&#145;" clip-path="url(#clip0_2666_2888)">
<g id="D726, Child, dad, family, father, kid">
<path id="Vector" d="M59.6348 47.3845C59.9348 47.6845 60.0348 48.0945 60.0348 48.3945C60.0348 48.7945 59.9348 49.2045 59.6348 49.4045C59.0348 50.0045 58.1248 50.0045 57.5148 49.4045L54.0848 45.9745V59.8845H50.2548V52.1245H47.1248V59.8845H43.2948V46.0745L39.8648 49.5045C39.5648 49.8045 39.1548 49.9045 38.7548 49.9045C38.3548 49.9045 37.9448 49.8045 37.6448 49.5045C37.0448 48.9045 37.0448 47.9945 37.6448 47.3845L42.9848 42.1445H54.3748L59.6148 47.3845H59.6348Z" fill="#DBDAFD"/>
<path id="Vector_2" d="M40.6846 33.375C41.8946 34.585 42.8046 36.095 41.5946 37.405L40.6846 37.805C39.4746 39.015 37.4546 39.015 36.2446 37.805L31.2046 30.545V59.985H25.5546V43.655H21.0146V60.085H14.6646V30.645L7.40463 37.905C6.79463 38.515 5.99463 38.815 5.18463 38.815C4.37463 38.815 3.57463 38.515 2.96463 37.905C1.75463 36.695 1.75463 34.675 2.96463 33.465L14.1546 22.375H31.5946L40.6646 33.365L40.6846 33.375Z" fill="#DBDAFD"/>
<path id="Vector_3" d="M22.3349 2.11328C26.4649 2.11328 29.8949 5.54328 29.8949 9.67328C29.8949 13.8033 26.4649 17.2333 22.3349 17.2333C18.2049 17.2333 14.7749 13.8033 14.7749 9.67328C14.7749 5.54328 18.1049 2.11328 22.3349 2.11328Z" fill="white"/>
<path id="Vector_4" d="M48.6446 34.8828C50.6646 34.8828 52.2746 36.4928 52.2746 38.5128C52.2746 40.5328 50.6646 42.1428 48.6446 42.1428C46.6246 42.1428 45.0146 40.5328 45.0146 38.5128C45.0146 36.4928 46.7246 34.8828 48.6446 34.8828Z" fill="white"/>
<path id="Vector_5" d="M48.6447 43.2542C45.9247 43.2542 43.8047 41.0342 43.8047 38.4142C43.8047 35.7942 46.0247 33.5742 48.6447 33.5742C51.2647 33.5742 53.4847 35.7942 53.4847 38.4142C53.4847 41.0342 51.3647 43.2542 48.6447 43.2542ZM48.6447 36.0942C47.3347 36.0942 46.3247 37.1042 46.3247 38.4142C46.3247 39.7242 47.3347 40.7342 48.6447 40.7342C49.9547 40.7342 50.9647 39.7242 50.9647 38.4142C50.9647 37.1042 49.9547 36.0942 48.6447 36.0942Z" fill="#001452"/>
<path id="Vector_6" d="M54.0948 61.2919H50.2648C49.5548 61.2919 48.9548 60.6819 48.9548 59.9819V53.4319H48.3548V59.9819C48.3548 60.6919 47.7448 61.2919 47.0448 61.2919H43.2148C42.5048 61.2919 41.9048 60.6819 41.9048 59.9819V49.0919L40.5948 50.4019C40.0948 50.9019 39.3848 51.2119 38.6748 51.2119C37.9648 51.2119 37.2648 50.9119 36.7548 50.4019C36.2548 49.9019 35.9448 49.1919 35.9448 48.4819C35.9448 47.7719 36.2448 47.0719 36.7548 46.5619L42.0948 41.3219C42.2948 41.1219 42.6948 40.9219 43.0048 40.9219H54.2948C54.5948 40.9219 54.8948 41.0219 55.2048 41.3219L60.5448 46.5619C61.0448 47.0619 61.3548 47.7719 61.3548 48.4819C61.3548 49.1919 61.0548 49.8919 60.5448 50.4019C60.0448 50.9019 59.3348 51.2119 58.6248 51.2119C57.9148 51.2119 57.2148 50.9119 56.7048 50.4019L55.3948 49.0919V59.9819C55.3948 60.6919 54.7948 61.2919 54.0848 61.2919H54.0948ZM51.4748 58.7719H52.7848V46.0719C52.7848 45.5719 53.0848 45.0619 53.5948 44.8619C54.0948 44.6619 54.6048 44.7619 55.0048 45.1619L58.4348 48.5919C58.5015 48.6585 58.5682 48.6919 58.6348 48.6919C58.7015 48.6919 58.7682 48.6585 58.8348 48.5919C58.9015 48.5252 58.9348 48.4585 58.9348 48.3919C58.9348 48.3919 58.9348 48.2919 58.8348 48.1919L53.7948 43.3519H43.6148L38.6748 48.2919C38.6082 48.3585 38.5748 48.4252 38.5748 48.4919C38.5748 48.5585 38.6082 48.6252 38.6748 48.6919H38.7748C38.7748 48.6919 38.8748 48.6919 38.9748 48.5919L42.4048 45.1619C42.8048 44.7619 43.3148 44.6619 43.8148 44.8619C44.3148 45.0619 44.6248 45.4719 44.6248 46.0719V58.7719H45.9348V52.2219C45.9348 51.5119 46.5448 50.9119 47.2448 50.9119H50.3748C51.0848 50.9119 51.6848 51.5119 51.6848 52.2219V58.7719H51.4848H51.4748Z" fill="#001452"/>
<path id="Vector_7" d="M22.3348 18.4531C17.4948 18.4531 13.4648 14.5231 13.4648 9.58313C13.4648 4.64313 17.3948 0.703125 22.3348 0.703125C27.2748 0.703125 31.2048 4.63312 31.2048 9.57312C31.2048 14.5131 27.1748 18.4431 22.3348 18.4431V18.4531ZM22.3348 3.33313C18.8048 3.33313 15.9848 6.15312 15.9848 9.68312C15.9848 13.2131 18.8048 16.0331 22.3348 16.0331C25.8648 16.0331 28.6848 13.2131 28.6848 9.68312C28.6848 6.15312 25.7648 3.33313 22.3348 3.33313Z" fill="#001452"/>
<path id="Vector_8" d="M31.1048 61.2927H25.5648C24.8548 61.2927 24.2548 60.6827 24.2548 59.9827V44.8627H22.2348V59.9827C22.2348 60.6927 21.6348 61.2927 20.9248 61.2927H14.5748C13.8648 61.2927 13.2648 60.6827 13.2648 59.9827V33.6727L8.22479 38.7127C7.41479 39.5227 6.30479 40.0227 5.09479 40.0227C3.88479 40.0227 2.77479 39.5227 1.96479 38.7127C1.15479 37.9027 0.654785 36.7927 0.654785 35.5927C0.654785 34.3927 1.15479 33.2727 1.96479 32.4627L13.1548 21.3727C13.3548 21.1727 13.7648 20.9727 14.0648 20.9727H31.5048C31.9048 20.9727 32.2148 21.1727 32.5148 21.4727L41.4848 32.5627C42.6948 33.7727 43.2948 34.9827 43.2948 36.0927C43.2948 36.9027 42.9948 37.7027 42.3848 38.3127C42.2848 38.4127 42.1848 38.5127 42.0848 38.5127L41.2748 38.9127C40.4648 39.6227 39.4648 40.0227 38.3548 40.0227C37.1448 40.0227 36.0348 39.5227 35.2248 38.7127C35.1581 38.646 35.1248 38.5793 35.1248 38.5127L32.4048 34.5827V59.9927C32.4048 60.7027 31.8048 61.3027 31.0948 61.3027L31.1048 61.2927ZM26.7648 58.7727H29.7848V30.6427C29.7848 30.1427 30.1848 29.6327 30.6948 29.4327C31.1948 29.2327 31.8048 29.4327 32.1048 29.9327L37.0448 37.0927C37.3448 37.3927 37.8548 37.5927 38.3548 37.5927C38.8548 37.5927 39.3648 37.3927 39.6648 37.0927C39.7648 36.9927 39.8648 36.8927 39.9648 36.8927L40.6748 36.4927C40.7748 36.3927 40.7748 36.2927 40.7748 36.1927C40.7748 35.9927 40.6748 35.4827 39.6648 34.3827L39.5648 34.2827L31.0948 23.4927H14.6648L3.87479 34.2827C3.57479 34.5827 3.37479 35.0927 3.37479 35.5927C3.37479 36.0927 3.57479 36.6027 3.87479 36.9027C4.27479 37.3027 4.68479 37.5127 5.18479 37.5127C5.68479 37.5127 6.19479 37.3127 6.49479 36.9027L13.7548 29.6427C14.1548 29.2427 14.6648 29.1427 15.1648 29.3427C15.6648 29.5427 15.9748 29.9427 15.9748 30.5527V58.7827H19.8048V43.6627C19.8048 42.9527 20.4148 42.3527 21.1148 42.3527H25.5548C26.2648 42.3527 26.8648 42.9627 26.8648 43.6627L26.7648 58.7827V58.7727Z" fill="#001452"/>
</g>
</g>
<defs>
<clipPath id="clip0_2666_2888">
<rect width="60.69" height="60.59" fill="white" transform="translate(0.654785 0.703125)"/>
</clipPath>
</defs>
</svg>
