<svg width="50" height="50" viewBox="0 0 50 50" fill="none" xmlns="http://www.w3.org/2000/svg">
<g id="Group">
<circle id="Ellipse 22" cx="25" cy="25" r="24" fill="#DBDAFD" stroke="#001452" stroke-width="2"/>
<g id="D747, dad, family, father, people">
<path id="Vector" d="M37.9508 26.6319C38.293 26.9741 38.4613 27.4229 38.4613 27.8773C38.4613 28.3317 38.293 28.7804 37.9508 29.1226C37.2721 29.8014 36.1389 29.8014 35.4601 29.1226L31.3875 25.05V41.565H26.8604V32.4043H23.2421V41.6211H18.7151V25.1061L14.6424 29.1787C14.3058 29.5153 13.8514 29.6892 13.397 29.6892C12.9426 29.6892 12.4939 29.5209 12.1517 29.1787C11.4729 28.4999 11.4729 27.3668 12.1517 26.688L18.3729 20.4668H31.6623L37.9396 26.6319H37.9508Z" fill="white" stroke="#001452"/>
<path id="Vector_2" d="M25.054 9.0957C27.3708 9.0957 29.2949 11.0198 29.2949 13.3367C29.2949 15.6535 27.3708 17.5776 25.054 17.5776C22.7371 17.5776 20.813 15.6535 20.813 13.3367C20.813 11.0198 22.7371 9.0957 25.054 9.0957Z" fill="white" stroke="#001452"/>
<path id="Vector_3" d="M25.054 18.2564C22.3389 18.2564 20.0781 16.0517 20.0781 13.2805C20.0781 10.5093 22.2828 8.30469 25.054 8.30469C27.8252 8.30469 30.0298 10.5093 30.0298 13.2805C30.0298 16.0517 27.7691 18.2564 25.054 18.2564ZM25.054 9.77444C23.1298 9.77444 21.4918 11.3564 21.4918 13.3366C21.4918 15.3169 23.0737 16.8988 25.054 16.8988C27.0342 16.8988 28.6161 15.3169 28.6161 13.3366C28.6161 11.3564 26.9781 9.77444 25.054 9.77444Z" fill="#001452" stroke="#001452"/>
<path id="Vector_4" d="M31.4435 42.2942H26.9164C26.5181 42.2942 26.1815 41.9577 26.1815 41.5594V33.0774H23.9769V41.5594C23.9769 41.9577 23.6403 42.2942 23.242 42.2942H18.715C18.3167 42.2942 17.9801 41.9577 17.9801 41.5594V26.8001L15.1528 29.6275C14.6984 30.0818 14.0757 30.3623 13.3969 30.3623C12.7182 30.3623 12.0955 30.0818 11.6467 29.6275C10.6874 28.6682 10.6874 27.0806 11.6467 26.1214L17.8679 19.9002C17.9801 19.788 18.2101 19.6758 18.3784 19.6758H31.7239C31.8922 19.6758 32.0661 19.7319 32.2344 19.9002L38.4556 26.1214C38.91 26.5758 39.1905 27.1984 39.1905 27.8772C39.1905 28.556 38.91 29.1787 38.4556 29.6331C38.0012 30.0875 37.3842 30.3679 36.7054 30.3679C36.0266 30.3679 35.4039 30.0875 34.9495 29.6331L32.1222 26.8058V41.6267C32.1222 41.9633 31.7857 42.3055 31.4435 42.3055V42.2942ZM27.5952 40.8806H30.703V25.1004C30.703 24.8199 30.8713 24.5338 31.1574 24.4216C31.4379 24.3094 31.7239 24.3655 31.9483 24.5899L36.021 28.6626C36.2454 28.887 36.4754 28.9431 36.7559 28.9431C37.0364 28.9431 37.3225 28.8309 37.4908 28.6626C37.6591 28.4382 37.7712 28.1521 37.7712 27.8716C37.7712 27.5911 37.6591 27.305 37.4908 27.1367L31.4379 21.0838H18.6645L12.6116 27.1367C12.2133 27.535 12.2133 28.2138 12.6116 28.6626C12.836 28.887 13.066 29.0048 13.3464 29.0048C13.6269 29.0048 13.913 28.8926 14.0813 28.6626L18.154 24.5899C18.3784 24.3655 18.6645 24.3094 18.945 24.4216C19.2255 24.5338 19.3994 24.7638 19.3994 25.1004V40.8806H22.5071V32.3987C22.5071 32.0004 22.8493 31.6638 23.242 31.6638H26.8603C27.2586 31.6638 27.5952 32.0004 27.5952 32.3987V40.8806Z" fill="#001452" stroke="#001452"/>
</g>
<path id="Vector 18" d="M42.6421 42.1426L8.64209 8.14258" stroke="#001452" stroke-width="2.5"/>
</g>
</svg>
