<svg width="52" height="46" viewBox="0 0 52 46" fill="none" xmlns="http://www.w3.org/2000/svg">
<path d="M41.1081 23.2093C41.9181 25.9156 44.3481 27.7884 47.1781 27.7884C47.7881 27.7884 48.2881 27.6855 48.8981 27.5826C52.2381 32.4704 50.8181 41.3199 43.0281 43.4088C40.7981 44.0364 38.9781 42.884 36.5581 43.8204C28.6681 46.6296 24.0181 41.9476 22.2981 41.9476C18.1481 41.9476 4.79808 42.4724 2.36808 38.4078C1.35808 36.7408 2.56808 37.2656 1.85808 32.6865C1.14808 23.837 5.19808 18.6302 8.83808 10.9332V7.39341C8.83808 4.89292 10.5581 2.71142 12.9881 2.28953L18.2481 1.35313C21.2781 0.838623 24.0181 3.22593 24.0181 6.45702V8.32981C24.0181 11.139 21.7881 13.4337 19.0581 13.4337H15.5181C15.3181 13.9585 15.1181 14.5759 15.1181 15.1007C15.1181 18.3318 15.1181 27.5929 16.0281 29.4657C17.5481 29.0541 17.6481 27.5929 20.0781 26.3375C24.7281 24.0428 28.8781 24.6705 33.3281 27.0681C35.0481 24.4647 37.9781 23.0138 41.1181 23.2196L41.1081 23.2093Z" fill="#DBDAFD"/>
<path d="M39.8881 36.1126C39.1781 36.1126 38.6781 35.5878 38.6781 34.8675C38.3781 29.9797 33.2181 28.4156 33.0181 28.3127C32.3081 28.1069 32.0081 27.3763 32.1081 26.7486C32.3081 26.018 33.0181 25.7093 33.6281 25.8122C33.9281 25.9151 40.7081 27.9937 41.1181 34.6617C41.2181 35.4952 40.7181 36.1229 39.9081 36.1229L39.8881 36.1126Z" fill="#001452"/>
<path d="M31.3982 46.0018C27.8582 46.0018 25.1282 44.6538 23.5082 43.8203C22.9982 43.5116 22.2982 43.1926 22.0882 43.1926H20.7782C11.8782 43.2955 3.37819 42.8839 1.15819 39.0251C0.548187 37.8829 0.548187 37.2552 0.648187 36.5246C0.748187 35.8969 0.848187 35.0634 0.448187 32.8819V32.779C0.0481867 25.4936 2.56819 20.5955 5.50819 14.9771C6.21819 13.6291 6.92819 12.1679 7.62819 10.6039V7.37276C7.62819 4.24457 9.85819 1.53828 12.8882 1.02377L18.1482 0.0873731C19.9682 -0.22133 21.7882 0.293175 23.2082 1.54857C24.6282 2.79367 25.4382 4.56356 25.4382 6.43636V8.30916C25.4382 11.849 22.6082 14.7611 19.1682 14.7611H16.6382V15.4916C16.6382 22.0464 16.8382 25.5862 17.0382 27.3561C17.5482 26.7284 18.3482 26.0081 19.6682 25.2775C24.0182 23.096 28.3682 23.1989 33.0182 25.4833C35.0382 23.0857 37.9782 21.7377 41.3182 21.8406C42.0282 21.8406 42.5282 22.4683 42.5282 23.1989C42.5282 23.9295 41.9182 24.444 41.3182 24.444H41.2182C38.4882 24.3411 35.9582 25.5862 34.5382 27.8809C34.1382 28.4057 33.4282 28.6115 32.9182 28.2925C28.4682 25.8949 24.8282 25.6891 20.8782 27.6648C19.8682 28.1896 19.3582 28.7041 18.8582 29.2289C18.3482 29.8566 17.7482 30.474 16.6282 30.793C16.0182 30.9988 15.4182 30.6901 15.1082 30.0624C14.3982 28.4983 14.0982 24.3411 14.0982 15.3887V15.08C14.0982 14.3494 14.1982 13.7218 14.6082 12.8985C14.8082 12.3737 15.2182 12.065 15.8182 12.065H19.0582C21.0782 12.065 22.7982 10.3981 22.7982 8.21655V6.34375C22.7982 5.20155 22.2882 4.16225 21.4882 3.43165C20.6782 2.70106 19.5682 2.39235 18.4482 2.59816L13.1882 3.53455C11.3682 3.84326 10.0482 5.40735 10.0482 7.28015V10.8199C10.0482 11.0257 10.0482 11.2315 9.94819 11.3447C9.13819 13.0117 8.32819 14.5758 7.61819 16.0267C4.78819 21.5422 2.55819 25.9155 2.86819 32.3674C3.26819 34.8679 3.16819 36.0101 3.06819 36.7407C3.00152 37.0151 3.06819 37.2929 3.26819 37.5742C3.66819 38.3048 5.18819 39.5499 10.5482 40.1776C14.1882 40.5995 18.3382 40.5995 20.7682 40.4863H22.0782C22.7882 40.4863 23.5982 40.8979 24.6082 41.3198C27.0382 42.462 30.6782 44.2319 35.9382 42.3591C37.5582 41.7314 38.8682 41.9372 40.0882 41.9372C40.9982 42.0401 41.7082 42.0401 42.5182 41.8343C45.4482 41.0008 47.5782 39.128 48.5882 36.4217C49.5982 33.6125 49.2982 30.3814 47.6782 27.9941C47.2782 27.3664 47.4782 26.6358 47.9782 26.2242C48.5882 25.8023 49.2882 26.0184 49.6982 26.5329C51.7182 29.5479 52.1282 33.7154 50.9082 37.3581C49.5982 40.8979 46.8582 43.3984 43.1182 44.4377C41.9082 44.7464 40.8882 44.6435 39.8782 44.5406C38.7682 44.4377 37.8582 44.3348 36.7382 44.7464C34.8182 45.6828 32.9982 45.9915 31.3782 45.9915L31.3982 46.0018Z" fill="#001452"/>
</svg>
