<svg width="62" height="61" viewBox="0 0 62 61" fill="none" xmlns="http://www.w3.org/2000/svg">
<g id="D - 720, Emotion, face, mask, sad">
<g id="Group">
<path id="Vector" d="M45.0101 0.5H16.8901C7.8801 0.5 0.600098 7.7 0.600098 16.6V32.2C0.600098 47.8 13.3501 60.5 29.2301 60.5H32.7701C48.5501 60.5 61.4001 47.9 61.4001 32.2V16.6C61.3001 7.7 54.0201 0.5 45.0101 0.5Z" fill="#DBDAFD"/>
<path id="Vector_2" d="M45.0101 0.5H16.8901C7.8801 0.5 0.600098 7.7 0.600098 16.6V32.2C0.600098 47.8 13.3501 60.5 29.2301 60.5H32.7701C48.5501 60.5 61.4001 47.9 61.4001 32.2V16.6C61.3001 7.7 54.0201 0.5 45.0101 0.5ZM58.7701 32.3C58.7701 46.4 47.0401 58 32.7701 58H29.2301C14.8601 58 3.1301 46.4 3.1301 32.3V16.6C3.1301 9.1 9.3001 3 16.8901 3H45.0101C52.6001 3 58.7701 9.1 58.7701 16.6V32.3Z" fill="#001452"/>
<path id="Vector_3" d="M24.7801 22.6017L23.1601 18.6017C21.7401 15.0017 17.6001 13.4017 14.0601 14.7017L10.0101 16.3017C9.40013 16.6017 9.00013 17.3017 9.30013 17.9017L10.9201 21.9017C12.3401 25.5017 16.4801 27.2017 20.0201 25.8017L24.0701 24.2017C24.7801 24.0017 25.0801 23.3017 24.7801 22.6017ZM19.1201 23.5017C16.8901 24.4017 14.2601 23.3017 13.3501 21.0017L12.2401 18.1017L15.1701 17.0017C17.4001 16.1017 20.0301 17.2017 20.9401 19.5017L22.0501 22.4017L19.1201 23.5017Z" fill="#001452"/>
<path id="Vector_4" d="M53.3003 16.5009L49.2503 14.8009C45.7103 13.3009 41.5602 14.9009 40.0402 18.4009L38.3203 22.4009C38.0203 23.0009 38.3202 23.8009 39.0302 24.0009L43.0802 25.7009C46.6202 27.2009 50.7702 25.6009 52.2902 22.1009L54.0102 18.1009C54.2102 17.5009 53.9102 16.8009 53.3003 16.5009ZM49.8602 21.2009C48.8502 23.4009 46.2202 24.5009 43.9902 23.5009L41.1603 22.3009L42.3702 19.5009C43.3802 17.3009 46.0102 16.2009 48.2402 17.2009L51.0703 18.4009L49.8602 21.2009Z" fill="#001452"/>
<path id="Vector_5" d="M11.9302 11.6984L23.0602 12.4984C25.4902 12.6984 27.4102 14.5984 27.6102 16.9984L28.3202 25.9984C28.4202 26.8984 28.2202 27.7984 27.8102 28.5984C26.5002 31.1984 26.9002 33.5984 29.0202 35.1984C29.6302 35.5984 30.3402 35.4984 30.7402 34.8984C31.1502 34.2984 31.0402 33.5984 30.4402 33.1984C30.0302 32.8984 28.8202 31.9984 29.9302 29.7984C30.5402 28.5984 30.8402 27.1984 30.7402 25.7984L30.0302 16.7984C29.7302 13.0984 26.8902 10.2984 23.1502 9.99844L12.0202 9.19844C11.3102 9.09844 10.7002 9.69844 10.7002 10.3984C10.7002 11.0984 11.2102 11.6984 11.9102 11.6984H11.9302Z" fill="#001452"/>
<path id="Vector_6" d="M37.7199 14.0013C38.2299 14.5013 39.0399 14.4013 39.5399 13.9013C39.5399 13.9013 43.3799 9.60127 51.9799 13.0013C52.5899 13.3013 53.3999 12.9013 53.5999 12.3013C53.8999 11.7013 53.4999 10.9013 52.8899 10.7013C42.5699 6.50127 37.7199 12.0013 37.5099 12.2013C37.0999 12.7013 37.2099 13.5013 37.7099 14.0013H37.7199Z" fill="#001452"/>
<path id="Vector_7" d="M30.9499 40.5C26.7999 40.5 23.3599 43.9 23.3599 48V49.3C23.3599 50 23.9699 50.6 24.6699 50.6H37.3199C38.0299 50.6 38.6299 50 38.6299 49.3V48C38.5299 43.9 35.0899 40.5 30.9399 40.5H30.9499ZM25.8899 48C25.8899 45.2 28.1199 43 30.9499 43C33.7799 43 36.0099 45.2 36.0099 48H25.8899Z" fill="#001452"/>
<path id="Vector_8" d="M47.2299 28.6984C46.7199 27.7984 45.4099 27.7984 44.9999 28.6984L42.8799 32.7984C42.2699 33.8984 42.3699 35.1984 43.0799 36.2984C44.4999 38.5984 47.8299 38.5984 49.2499 36.2984C49.9599 35.1984 49.9599 33.8984 49.4499 32.7984L47.2199 28.6984H47.2299ZM46.1199 35.4984C45.3099 35.4984 44.7999 34.6984 45.1099 33.9984L46.1199 32.0984L47.1299 33.9984C47.4299 34.6984 46.9299 35.4984 46.1199 35.4984Z" fill="#001452"/>
</g>
</g>
</svg>
