<svg width="58" height="36" viewBox="0 0 58 36" fill="none" xmlns="http://www.w3.org/2000/svg">
<g id="Group">
<path id="Vector" d="M39.8689 4.32453H52.5889C55.7189 4.32453 58.0389 7.35453 57.2289 10.3845C57.0289 11.1945 56.5289 12.0045 55.9189 12.4045C55.6189 12.7145 55.3089 13.0145 54.9089 13.2145C56.6289 15.4345 56.0189 18.6645 53.5989 20.1745C53.3889 20.3745 53.1889 20.4745 52.8889 20.5745C53.4989 21.5845 53.7989 22.7945 53.5989 23.9045C53.2989 26.1245 51.4789 27.8445 49.3589 27.9445C49.6589 28.7545 49.8589 29.4545 49.8589 30.2645C49.8589 32.9845 48.0389 35.1045 45.8189 35.1045H40.0689C38.9589 35.1045 37.9489 34.3945 37.2389 33.3845H26.2389C24.1189 33.3845 22.2989 31.6745 22.1989 29.5545H19.6789V30.8645C19.6789 31.5645 19.0789 32.1745 18.3689 32.1745H1.91889C1.21889 32.1745 0.608887 31.5745 0.608887 30.8645V6.03453C0.608887 5.33453 1.20889 4.72453 1.91889 4.72453H18.2789C18.9789 4.72453 19.5889 5.32453 19.5889 6.03453V7.34453H21.8089C22.1089 5.73453 23.3189 4.31453 25.0389 4.01453L26.1489 3.61453L34.2489 1.34453C35.4389 1.09453 36.3989 0.894531 36.5389 0.894531C37.5189 0.894531 38.3489 1.42453 38.9089 2.20453L39.8689 4.32453Z" fill="#DBDAFD"/>
<path id="Vector_2" d="M52.5889 4.32453H39.8689L38.9089 2.20453C38.3489 1.42453 37.5189 0.894531 36.5389 0.894531C36.3989 0.894531 35.4389 1.09453 34.2489 1.34453L26.1489 3.61453L25.0389 4.01453C23.3189 4.31453 22.1089 5.73453 21.8089 7.34453H19.5889V6.03453C19.5889 5.32453 18.9789 4.72453 18.2789 4.72453H1.91889C1.20889 4.72453 0.608887 5.33453 0.608887 6.03453V30.8645C0.608887 31.5745 1.21889 32.1745 1.91889 32.1745H18.3689C19.0789 32.1745 19.6789 31.5645 19.6789 30.8645V29.5545H22.1989C22.2989 31.6745 24.1189 33.3845 26.2389 33.3845H37.2389C37.9489 34.3945 38.9589 35.1045 40.0689 35.1045H45.8189C48.0389 35.1045 49.8589 32.9845 49.8589 30.2645C49.8589 29.4545 49.6589 28.7545 49.3589 27.9445C51.4789 27.8445 53.2989 26.1245 53.5989 23.9045C53.7989 22.7945 53.4989 21.5845 52.8889 20.5745C53.1889 20.4745 53.3889 20.3745 53.5989 20.1745C56.0189 18.6645 56.6289 15.4345 54.9089 13.2145C55.3089 13.0145 55.6189 12.7145 55.9189 12.4045C56.5289 12.0045 57.0289 11.1945 57.2289 10.3845C58.0389 7.35453 55.7189 4.32453 52.5889 4.32453ZM17.0589 29.5645H3.22889V7.25453H17.1589C17.0589 8.56453 17.0589 28.3445 17.0589 29.5645ZM22.1089 27.0445H19.5889V9.77453H22.1089V27.0345V27.0445ZM32.9089 4.02453C36.5389 3.41453 36.3389 3.52453 36.4389 3.52453C36.6389 3.52453 36.7389 3.62453 36.8389 3.82453C36.8389 3.92453 38.2489 7.35453 38.1489 7.15453C38.1489 7.25453 38.2489 7.35453 38.3489 7.45453L41.5789 11.1945L41.6789 11.2945C42.4889 12.4045 42.1789 14.0245 40.9689 14.6245C39.9589 15.1245 38.8489 14.9245 38.1389 14.1245L32.0789 7.05453C32.1789 6.34453 32.6889 4.83453 32.8889 4.02453H32.9089ZM36.4389 30.2645C36.4389 30.3979 36.4722 30.6679 36.5389 31.0745H26.1389C25.3289 30.8745 24.6289 30.1645 24.6289 29.3545C24.6289 29.3545 24.6289 28.2445 24.6289 28.3445V7.96453C24.6289 7.25453 25.1289 6.55453 25.9389 6.45453C26.1389 6.45453 25.9389 6.45453 30.0789 4.94453C29.8789 5.55453 29.6789 6.25453 29.6789 6.86453C29.6789 7.26453 29.6789 7.67453 29.7789 8.07453C30.0789 10.6945 29.9789 17.1545 26.4489 18.6745C25.8389 18.9745 25.5389 19.6845 25.8389 20.3945C26.1389 21.0045 26.8489 21.3045 27.5589 21.0045C31.2889 19.2845 32.1989 14.6445 32.3989 11.3145C36.4389 16.1545 36.4389 16.0545 36.7389 16.3645C37.2389 16.8645 37.8489 17.1745 38.3589 17.3745C38.5589 18.3845 39.0689 19.1945 39.7689 19.8945C38.0489 21.5145 37.7489 24.1345 38.9589 26.1545C37.5489 26.8645 36.5389 28.3745 36.4389 30.2945V30.2645ZM45.8289 32.6845H40.2789C39.6689 32.6845 39.1689 32.0745 38.9689 31.4745L38.7689 30.0645C38.8689 28.9545 39.4789 28.0445 40.2789 28.0445H45.8289C46.6389 28.0445 47.3389 29.1545 47.3389 30.3645C47.3389 31.5745 46.6289 32.6845 45.8289 32.6845ZM49.1589 25.6145H42.5989C41.4889 25.6145 40.5789 24.6045 40.5789 23.2945C40.5789 22.0845 41.4889 20.9745 42.5989 20.9745H49.1589C50.2689 20.9745 51.1789 21.9845 51.1789 23.2945C51.1789 24.5045 50.2689 25.6145 49.1589 25.6145ZM51.1789 18.4445H42.8989C42.0889 18.4445 41.3889 18.0445 40.9789 17.4345C42.6989 17.0345 44.1089 15.8145 44.6089 13.9045H51.1689C52.3789 13.9045 53.4889 14.9145 53.4889 16.2245C53.3889 17.4345 52.3789 18.4445 51.1689 18.4445H51.1789ZM52.5889 11.3745H44.5089C44.4089 10.8745 44.1089 10.4645 43.8989 10.0645C43.7989 9.96453 43.6989 9.76453 43.5989 9.66453C43.5989 9.66453 43.8989 10.0645 41.2789 6.83453H52.6889C53.8989 6.83453 54.9089 7.84453 54.9089 9.05453C54.9089 10.2645 53.8989 11.3745 52.5889 11.3745Z" fill="#001452"/>
<path id="Vector_3" d="M12.6187 23.7031C11.6087 23.7031 10.6987 24.5131 10.6987 25.6231C10.6987 26.7331 11.5087 27.5431 12.6187 27.5431C13.7287 27.5431 14.5387 26.7331 14.5387 25.6231C14.5387 24.5131 13.7287 23.7031 12.6187 23.7031ZM12.6187 26.2231C12.3187 26.2231 12.0087 25.9231 12.0087 25.6131C12.0087 25.3031 12.3087 25.0031 12.6187 25.0031C12.9287 25.0031 13.2287 25.3031 13.2287 25.6131C13.3287 25.9131 13.0287 26.2231 12.6187 26.2231Z" fill="#001452"/>
</g>
</svg>
