<svg width="56" height="54" viewBox="0 0 56 54" fill="none" xmlns="http://www.w3.org/2000/svg">
<g id="Group">
<path id="Vector" d="M35.5102 52.6557H12.8302V38.8457H5.27018V27.4557H1.43018V17.3757C1.43018 12.8357 3.35018 8.8057 6.47018 5.9857C9.60018 3.1557 13.7302 1.3457 18.3702 1.3457C21.9002 1.3457 25.1302 2.3557 27.9502 4.0657C30.7702 2.3557 34.0002 1.3457 37.5302 1.3457C42.0702 1.3457 46.3002 3.0557 49.4302 5.9857C52.5602 8.8057 54.4702 12.8457 54.4702 17.3757V27.4557H50.6402V38.8457H43.0802V52.7557H35.5202V52.6557H35.5102Z" fill="#DBDAFD"/>
<path id="Vector_2" d="M32.9902 28.5655L24.5202 42.5755L25.9302 31.3855H21.7002L24.2202 19.8955L31.5802 18.6855L28.2502 28.5655H32.9902Z" fill="#DBDAFD"/>
<path id="Vector_3" d="M25.2302 21.1055L31.0802 20.0955L31.5802 18.6855L24.2202 19.8955L21.7002 31.3855H23.0102L25.2302 21.1055Z" fill="#DBDAFD"/>
<path id="Vector_4" d="M43.07 53.365H35.51C35.21 53.365 34.91 53.065 34.91 52.755C34.91 52.445 35.21 52.155 35.51 52.155H42.47V38.845C42.47 38.545 42.77 38.235 43.07 38.235H50.03V27.445C50.03 27.145 50.33 26.845 50.63 26.845H53.76V17.365C53.76 13.235 52.05 9.295 48.92 6.375C45.9 3.555 41.76 1.935 37.53 1.935C34.2 1.935 31.08 2.845 28.25 4.555C23.71 7.475 20.99 12.215 20.99 17.255C20.99 17.555 20.69 17.865 20.39 17.865C20.09 17.865 19.79 17.565 19.79 17.255C19.79 11.715 22.71 6.565 27.65 3.445C30.57 1.525 34 0.625 37.53 0.625C42.17 0.625 46.5 2.335 49.83 5.365C53.16 8.495 55.07 12.725 55.07 17.265V27.345C55.07 27.645 54.77 27.945 54.47 27.945H51.34V38.635C51.34 38.935 51.04 39.245 50.74 39.245H43.78V52.455C43.68 53.065 43.38 53.365 43.07 53.365Z" fill="#001452" stroke="#001452"/>
<path id="Vector_5" d="M35.5102 53.3659H12.8302C12.5302 53.3659 12.2302 53.0659 12.2302 52.7559V39.4459H5.27018C4.97018 39.4459 4.67018 39.1459 4.67018 38.8459V28.1559H1.53018C1.23018 28.1559 0.930176 27.8559 0.930176 27.5559V17.4759C0.930176 12.9359 2.74018 8.70594 6.17018 5.57594C9.50018 2.55594 13.8302 0.835938 18.4702 0.835938C22.0002 0.835938 25.4302 1.84594 28.3502 3.65594C29.7602 4.56594 31.0702 5.67594 32.1802 6.98594C34.8002 10.0059 36.2102 13.6359 36.2102 17.4759C36.2102 17.7759 35.9102 18.0759 35.6102 18.0759C35.3102 18.0759 35.0102 17.7759 35.0102 17.4759C35.0102 13.9459 33.7002 10.5159 31.2802 7.79594C30.2702 6.58594 29.0602 5.57594 27.6502 4.77594C24.9302 3.06594 21.7002 2.15594 18.3702 2.15594C14.0302 2.15594 10.0002 3.76594 6.98018 6.59594C3.85018 9.51594 2.14018 13.3459 2.14018 17.5859V27.0659H5.27018C5.57018 27.0659 5.88018 27.3659 5.88018 27.6659V38.3559H12.8402C13.1402 38.3559 13.4402 38.6559 13.4402 38.9559V52.1659H34.9202V40.0659C34.9202 39.7659 35.2202 39.4559 35.5202 39.4559C35.8202 39.4559 36.1202 39.7559 36.1202 40.0659V52.6659C36.1202 53.0659 35.8202 53.3759 35.5202 53.3759L35.5102 53.3659Z" fill="#001452" stroke="#001452"/>
<path id="Vector_6" d="M24.5201 43.2857H24.3201C24.0201 43.1857 23.8201 42.8857 23.9201 42.5857L25.2301 31.9957H21.8001C21.6001 31.9957 21.4001 31.8957 21.3001 31.7957C21.2001 31.6957 21.1001 31.4957 21.2001 31.2957L23.6201 19.9057C23.7201 19.6057 23.9201 19.5057 24.1201 19.4057L31.5801 18.0957C31.7801 18.0957 31.9801 18.0957 32.1801 18.2957C32.2801 18.4957 32.3801 18.6957 32.2801 18.8957L29.2601 27.9657H33.0901C33.2901 27.9657 33.4901 28.0657 33.5901 28.2657C33.6901 28.4657 33.6901 28.6657 33.5901 28.8657L25.1201 42.9857C24.9201 43.1857 24.7201 43.2857 24.5201 43.2857ZM22.5001 30.6857H25.9301C26.1301 30.6857 26.2301 30.7857 26.4301 30.8857C26.5301 30.9857 26.6301 31.1857 26.6301 31.3857L25.6201 39.7557L31.9701 29.1657H28.3401C28.1401 29.1657 27.9401 29.0657 27.8401 28.8657C27.7401 28.6657 27.7401 28.4657 27.7401 28.2657L30.6601 19.3957L24.7101 20.4057L22.4901 30.6857H22.5001Z" fill="#001452" stroke="#001452"/>
</g>
</svg>
