<svg width="62" height="62" viewBox="0 0 62 62" fill="none" xmlns="http://www.w3.org/2000/svg">
<g id="D - 726, Child, dad, family, father, kid">
<g id="Group">
<path id="Vector" d="M55.0913 41.1795L60.4313 46.4195H60.4113C60.9213 46.9295 61.2213 47.6295 61.3213 48.4395C61.3213 49.9495 60.1113 51.1595 58.6013 51.1595C57.8913 51.1595 57.1813 50.8495 56.6813 50.3495L55.3713 49.0395V59.9295C55.3713 60.6395 54.7713 61.2395 54.0613 61.2395H50.2313C49.5213 61.2395 48.9213 60.6395 48.9213 59.9295V53.3795H48.3213V59.9295C48.3213 60.6395 47.7213 61.2395 47.0113 61.2395H43.1813C42.4713 61.2395 41.8713 60.6395 41.8713 59.9295V49.0395L40.5613 50.3495C39.4513 51.4595 37.7413 51.4595 36.6313 50.3495C35.5213 49.2395 35.5213 47.5295 36.6313 46.4195L41.9713 41.1795C42.2713 40.8795 42.5813 40.7795 42.8813 40.7795H44.2913C43.8913 40.0695 43.6913 39.2695 43.6913 38.3595C43.6913 35.7395 45.9113 33.5195 48.5313 33.5195C51.1513 33.5195 53.3713 35.6395 53.3713 38.3595C53.3713 39.2695 53.1713 40.0695 52.7713 40.7795H54.1813C54.4913 40.7795 54.8913 40.9795 55.0913 41.1795Z" fill="#DBDAFD"/>
<path id="Vector_2" d="M31.0911 9.51844C31.0911 14.4584 27.0611 18.3884 22.2211 18.3884C17.2811 18.3884 13.3511 14.5584 13.3511 9.61844C13.3511 4.67844 17.2811 0.648438 22.2211 0.648438C27.1611 0.648438 31.0911 4.57844 31.0911 9.51844Z" fill="#DBDAFD"/>
<path id="Vector_3" d="M42.3912 38.1502C42.0912 38.3602 41.9912 38.3602 41.2812 38.7602C40.4812 39.5702 39.3712 39.9702 38.4612 39.9702C37.2512 39.9702 36.1412 39.4702 35.3312 38.6602C35.1312 38.4602 35.3312 38.6602 32.4112 34.5302V60.0402C32.4112 60.7502 31.8112 61.3502 31.1012 61.3502H25.5512C24.8412 61.3502 24.2412 60.7502 24.2412 60.0402V44.9202H22.2212V60.0402C22.2212 60.7502 21.6212 61.3502 20.9112 61.3502H14.5612C13.8512 61.3502 13.2512 60.7502 13.2512 60.0402V33.6202L8.21121 38.6602C6.50121 40.3702 3.67121 40.3702 1.96121 38.6602C0.251211 36.9502 0.251211 34.1202 1.96121 32.4102L13.1412 21.3102C13.4512 21.0102 13.7512 20.9102 14.0512 20.9102H31.5112C31.9212 20.9102 32.3212 21.1102 32.5212 21.4102L41.4912 32.4002C42.7012 33.6102 43.3012 34.8202 43.3012 35.9302C43.3012 36.7402 42.9912 37.5502 42.3912 38.1502Z" fill="#DBDAFD"/>
<path id="Vector_4" d="M60.4313 46.4195L55.0913 41.1795C54.8913 40.9795 54.4913 40.7795 54.1813 40.7795H52.7713C53.1713 40.0695 53.3713 39.2695 53.3713 38.3595C53.3713 35.6395 51.1513 33.5195 48.5313 33.5195C45.9113 33.5195 43.6913 35.7395 43.6913 38.3595C43.6913 39.2695 43.8913 40.0695 44.2913 40.7795H42.8813C42.5813 40.7795 42.2713 40.8795 41.9713 41.1795L36.6313 46.4195C35.5213 47.5295 35.5213 49.2395 36.6313 50.3495C37.7413 51.4595 39.4513 51.4595 40.5613 50.3495L41.8713 49.0395V59.9295C41.8713 60.6395 42.4713 61.2395 43.1813 61.2395H47.0113C47.7213 61.2395 48.3213 60.6395 48.3213 59.9295V53.3795H48.9213V59.9295C48.9213 60.6395 49.5213 61.2395 50.2313 61.2395H54.0613C54.7713 61.2395 55.3713 60.6395 55.3713 59.9295V49.0395L56.6813 50.3495C57.1813 50.8495 57.8913 51.1595 58.6013 51.1595C60.1113 51.1595 61.3213 49.9495 61.3213 48.4395C61.2213 47.6295 60.9213 46.9295 60.4113 46.4195H60.4313ZM48.5313 36.0395C49.8413 36.0395 50.8513 37.0495 50.8513 38.3595C50.8513 39.6695 49.8413 40.6795 48.5313 40.6795C47.2213 40.6795 46.2113 39.6695 46.2113 38.3595C46.2113 37.0495 47.3213 36.0395 48.5313 36.0395ZM58.3113 48.5395L54.8813 45.1095C54.4813 44.7095 53.9713 44.6095 53.4713 44.8095C52.9713 45.0095 52.6613 45.4095 52.6613 46.0195V58.7195H51.3513V52.1695C51.3513 51.4595 50.7513 50.8595 50.0413 50.8595H46.9113C46.2013 50.8595 45.6013 51.4695 45.6013 52.1695V58.7195H44.2913V46.0195C44.2913 45.5195 43.9913 45.0095 43.4813 44.8095C42.9813 44.6095 42.4713 44.7095 42.0713 45.1095L38.6413 48.5395C38.5413 48.6395 38.4413 48.6395 38.3413 48.5395C38.2413 48.4395 38.2413 48.3395 38.3413 48.2395L43.2813 43.2995H53.6613L58.6013 48.2395C58.668 48.3062 58.7013 48.3729 58.7013 48.4395C58.7013 48.6395 58.4013 48.7395 58.3013 48.5395H58.3113Z" fill="#001452"/>
<path id="Vector_5" d="M22.2211 18.3884C27.0611 18.3884 31.0911 14.4584 31.0911 9.51844C31.0911 4.57844 27.1611 0.648438 22.2211 0.648438C17.2811 0.648438 13.3511 4.67844 13.3511 9.61844C13.3511 14.5584 17.2811 18.3884 22.2211 18.3884ZM22.2211 3.26844C25.7511 3.26844 28.5711 6.08844 28.5711 9.61844C28.5711 13.1484 25.7511 15.9684 22.2211 15.9684C18.6911 15.9684 15.8711 13.1484 15.8711 9.61844C15.8711 6.08844 18.6911 3.26844 22.2211 3.26844Z" fill="#001452"/>
<path id="Vector_6" d="M41.2812 38.7602C41.9912 38.3602 42.0912 38.3602 42.3912 38.1502C42.9912 37.5502 43.3012 36.7402 43.3012 35.9302C43.3012 34.8202 42.7012 33.6102 41.4912 32.4002L32.5212 21.4102C32.3212 21.1102 31.9212 20.9102 31.5112 20.9102H14.0512C13.7512 20.9102 13.4512 21.0102 13.1412 21.3102L1.96121 32.4102C0.251211 34.1202 0.251211 36.9502 1.96121 38.6602C3.67121 40.3702 6.50121 40.3702 8.21121 38.6602L13.2512 33.6202V60.0402C13.2512 60.7502 13.8512 61.3502 14.5612 61.3502H20.9112C21.6212 61.3502 22.2212 60.7502 22.2212 60.0402V44.9202H24.2412V60.0402C24.2412 60.7502 24.8412 61.3502 25.5512 61.3502H31.1012C31.8112 61.3502 32.4112 60.7502 32.4112 60.0402V34.5302C35.3312 38.6602 35.1312 38.4602 35.3312 38.6602C36.1412 39.4702 37.2512 39.9702 38.4612 39.9702C39.3712 39.9702 40.4812 39.5702 41.2812 38.7602ZM32.1112 29.7902C31.8112 29.3902 31.2012 29.1902 30.7012 29.2902C30.2012 29.4902 29.7912 29.8902 29.7912 30.5002V58.7302H26.7712V43.6102C26.7712 42.9002 26.1712 42.3002 25.4612 42.3002H20.9212C20.2112 42.3002 19.6112 42.9002 19.6112 43.6102V58.7302H15.7812V30.6002C15.7812 30.1002 15.4812 29.5902 14.9712 29.3902C14.4712 29.1902 13.9612 29.2902 13.5612 29.6902L6.30121 36.9502C5.90121 37.3502 5.49121 37.4502 4.99121 37.4502C3.98121 37.4502 3.07121 36.6402 3.07121 35.5302C3.07121 35.0302 3.27121 34.5202 3.57121 34.2202L14.5612 23.4302H30.8912C40.0612 34.8202 39.4612 34.1202 39.5612 34.2202C40.5712 35.2302 40.6712 35.8302 40.6712 36.0302C40.6712 36.0968 40.6379 36.1968 40.5712 36.3302C39.9712 36.6302 39.7612 36.7302 39.5612 36.9302C38.8512 37.6402 37.7512 37.6402 36.9412 37.0302L32.1012 29.7702L32.1112 29.7902Z" fill="#001452"/>
</g>
</g>
</svg>
