<svg width="50" height="48" viewBox="0 0 50 48" fill="none" xmlns="http://www.w3.org/2000/svg">
<g id="1923, Group, Leader, Leadership, People, Person">
<g id="Group">
<path id="Vector" d="M27.9742 46.9809C27.9742 47.5296 28.4461 48 28.9875 48C29.529 48 30.0086 47.5296 30.0086 46.9809V34.9082H32.9789C33.5281 34.9082 34 34.4379 34 33.8891V25.8929C33.9226 22.2868 31.7336 19.0727 28.5234 17.74C29.9312 16.6424 30.8672 14.9178 30.8672 12.9579C30.8672 9.66539 28.2063 7 24.9188 7C21.6313 7 18.9703 9.66539 18.9703 12.9579C18.9703 14.9178 19.9063 16.6424 21.3219 17.74C18.1891 19.1511 16 22.2868 16 25.9713V33.9675C16 34.5163 16.4719 34.9866 17.0133 34.9866H19.9837V46.9809C19.9837 47.5296 20.4555 48 20.997 48C21.5385 48 22.018 47.5296 22.018 46.9809H27.9665H27.9742Z" fill="#DBDAFD"/>
<path id="Vector_2" d="M11.6437 47.1052C11.6437 47.587 12.0632 48 12.5445 48C13.0258 48 13.4521 47.587 13.4521 47.1052V36.5048H16.0924C16.5806 36.5048 17 36.0918 17 35.6099V28.5889C16.9312 25.4226 14.9854 22.6004 12.1319 21.4302C13.3833 20.4665 14.2153 18.9522 14.2153 17.2314C14.2153 14.3403 11.85 12 8.9278 12C6.00559 12 3.64031 14.3403 3.64031 17.2314C3.64031 18.9522 4.47228 20.4665 5.73055 21.4302C2.94585 22.6692 1 25.4226 1 28.6577V35.6788C1 36.1606 1.41942 36.5736 1.90073 36.5736H4.54104V47.1052C4.54104 47.587 4.96046 48 5.44177 48C5.92308 48 6.34938 47.587 6.34938 47.1052H11.6369H11.6437Z" fill="#DBDAFD"/>
<path id="Vector_3" d="M43.6437 47.1052C43.6437 47.587 44.0632 48 44.5445 48C45.0258 48 45.4521 47.587 45.4521 47.1052V36.5048H48.0924C48.5806 36.5048 49 36.0918 49 35.6099V28.5889C48.9312 25.4226 46.9854 22.6004 44.1319 21.4302C45.3833 20.4665 46.2153 18.9522 46.2153 17.2314C46.2153 14.3403 43.85 12 40.9278 12C38.0056 12 35.6403 14.3403 35.6403 17.2314C35.6403 18.9522 36.4723 20.4665 37.7306 21.4302C34.9459 22.6692 33 25.4226 33 28.6577V35.6788C33 36.1606 33.4194 36.5736 33.9007 36.5736H36.541V47.1052C36.541 47.587 36.9605 48 37.4418 48C37.9231 48 38.3494 47.587 38.3494 47.1052H43.6369H43.6437Z" fill="#DBDAFD"/>
<path id="Vector_4" d="M28.6111 17.7255C30.0386 16.6274 30.9876 14.9019 30.9876 12.9412C30.9876 9.64704 28.2896 6.98038 24.9562 6.98038C21.6229 6.98038 18.9249 9.64704 18.9249 12.9412C18.9249 14.9019 19.8739 16.6274 21.3092 17.7255C18.1327 19.1372 15.9131 22.2745 15.9131 25.9608V33.9608C15.9131 34.5098 16.3915 34.9804 16.9405 34.9804H19.9523V46.9804C19.9523 47.5294 20.4307 48 20.9798 48C21.5288 48 22.015 47.5294 22.015 46.9804V30.9019C22.015 30.3529 21.5366 29.8823 20.9798 29.8823C20.4229 29.8823 19.9523 30.3529 19.9523 30.9019V32.9412H17.968V25.8823C17.968 22.0392 21.1445 18.9019 25.0268 18.9019C28.9092 18.9019 32.0856 22.0392 32.0856 25.8823V32.9412H30.1013V30.9804C30.1013 30.4314 29.6229 29.9608 29.066 29.9608C28.5092 29.9608 28.0386 30.4314 28.0386 30.9804V46.9804C28.0386 47.5294 28.517 48 29.066 48C29.615 48 30.1013 47.5294 30.1013 46.9804V34.9019H33.1131C33.67 34.9019 34.1484 34.4314 34.1484 33.8823V25.8823C34.07 22.2745 31.8503 19.0588 28.5954 17.7255H28.6111ZM20.917 12.9412C20.917 10.7451 22.7445 8.94116 24.9641 8.94116C27.1837 8.94116 29.0111 10.7451 29.0111 12.9412C29.0111 15.1372 27.1837 16.9412 24.9641 16.9412C22.7445 16.9412 20.917 15.1372 20.917 12.9412Z" fill="#001452"/>
<path id="Vector_5" d="M24.9567 37.8824C24.3998 37.8824 23.9214 38.3529 23.9214 38.902V46.902C23.9214 47.451 24.3998 47.9216 24.9567 47.9216C25.5135 47.9216 25.9841 47.451 25.9841 46.902V38.902C25.9841 38.3529 25.5057 37.8824 24.9567 37.8824Z" fill="#001452"/>
<path id="Vector_6" d="M13.8509 11.9216C17.1842 11.9216 19.8822 9.2549 19.8822 5.96078C19.8822 2.66667 17.1842 0 13.8509 0C10.5175 0 7.81949 2.66667 7.81949 5.96078C7.74106 9.2549 10.5175 11.9216 13.8509 11.9216Z" fill="#DBDAFD"/>
<path id="Vector_7" d="M13.8509 11.9216C17.1842 11.9216 19.8822 9.2549 19.8822 5.96078C19.8822 2.66667 17.1842 0 13.8509 0C10.5175 0 7.81949 2.66667 7.81949 5.96078C7.74106 9.2549 10.5175 11.9216 13.8509 11.9216ZM13.8509 1.96078C16.0705 1.96078 17.8979 3.76471 17.8979 5.96078C17.8979 8.15686 16.0705 9.96078 13.8509 9.96078C11.6313 9.96078 9.80381 8.15686 9.80381 5.96078C9.80381 3.76471 11.6313 1.96078 13.8509 1.96078Z" fill="#001452"/>
<path id="Vector_8" d="M36.0704 11.9216C39.4038 11.9216 42.1018 9.2549 42.1018 5.96078C42.1018 2.66667 39.4038 0 36.0704 0C32.7371 0 30.0391 2.66667 30.0391 5.96078C30.0391 9.2549 32.7371 11.9216 36.0704 11.9216Z" fill="#DBDAFD"/>
<path id="Vector_9" d="M36.0704 11.9216C39.4038 11.9216 42.1018 9.2549 42.1018 5.96078C42.1018 2.66667 39.4038 0 36.0704 0C32.7371 0 30.0391 2.66667 30.0391 5.96078C30.0391 9.2549 32.7371 11.9216 36.0704 11.9216ZM36.0704 1.96078C38.29 1.96078 40.1175 3.76471 40.1175 5.96078C40.1175 8.15686 38.29 9.96078 36.0704 9.96078C33.8508 9.96078 32.0234 8.15686 32.0234 5.96078C32.0234 3.76471 33.8508 1.96078 36.0704 1.96078Z" fill="#001452"/>
<path id="Vector_10" d="M12.3448 31.9216C11.788 31.9216 11.3174 32.3922 11.3174 32.9412V46.902C11.3174 47.451 11.7958 47.9216 12.3448 47.9216C12.8939 47.9216 13.3801 47.451 13.3801 46.902V32.9412C13.3017 32.3922 12.9017 31.9216 12.3448 31.9216Z" fill="#001452"/>
<path id="Vector_11" d="M8.77651 38.902C8.21964 38.902 7.74121 39.3726 7.74121 39.9216V46.902C7.74121 47.451 8.21964 47.9216 8.77651 47.9216C9.33337 47.9216 9.8118 47.451 9.8118 46.902V39.9216C9.8118 39.3726 9.33337 38.902 8.77651 38.902Z" fill="#001452"/>
<path id="Vector_12" d="M8.77643 11.7647C5.76466 11.7647 3.38035 14.1961 3.38035 17.1765C3.38035 18.8235 4.17251 20.3137 5.36466 21.3333C2.66662 22.5882 0.760742 25.4118 0.760742 28.549V35.5294C0.760742 36.0784 1.23917 36.549 1.78819 36.549H4.32937V46.902C4.32937 47.451 4.8078 47.9216 5.36466 47.9216C5.92153 47.9216 6.39212 47.451 6.39212 46.902V32.9412C6.39212 32.3922 5.91368 31.9216 5.36466 31.9216C4.81564 31.9216 4.32937 32.3922 4.32937 32.9412V34.5098H2.82349V28.549C2.82349 25.2549 5.52153 22.5882 8.85486 22.5882C11.8666 22.5882 14.3294 20.1569 14.3294 17.2549C14.2509 14.1961 11.7882 11.7647 8.77643 11.7647ZM8.77643 20.549C6.87055 20.549 5.36466 19.0588 5.36466 17.1765C5.36466 15.2941 6.87055 13.8039 8.77643 13.8039C10.6823 13.8039 12.1882 15.2941 12.1882 17.1765C12.1882 19.0588 10.6823 20.549 8.77643 20.549Z" fill="#001452"/>
<path id="Vector_13" d="M44.5569 21.3333C45.749 20.3137 46.5412 18.8235 46.5412 17.1765C46.5412 14.1961 44.0784 11.8431 41.1451 11.8431C38.2118 11.8431 35.749 14.2745 35.749 17.1765C35.749 20.0784 38.2118 22.5098 41.1451 22.5098C44.4784 22.5098 47.1765 25.1765 47.1765 28.4706V34.5098H45.6706V32.9412C45.6706 32.3922 45.1922 31.9216 44.6353 31.9216C44.0784 31.9216 43.6078 32.3922 43.6078 32.9412V46.902C43.6078 47.451 44.0863 47.9216 44.6353 47.9216C45.1843 47.9216 45.6706 47.451 45.6706 46.902V36.549H48.2118C48.7686 36.549 49.2392 36.0784 49.2392 35.5294V28.549C49.2392 25.3333 47.3333 22.5882 44.5569 21.3333ZM37.7333 17.1765C37.7333 15.2941 39.2392 13.8039 41.1451 13.8039C43.051 13.8039 44.5569 15.2941 44.5569 17.1765C44.5569 19.0588 43.051 20.549 41.1451 20.549C39.2392 20.549 37.7333 19.0588 37.7333 17.1765Z" fill="#001452"/>
<path id="Vector_14" d="M37.5763 31.9216C37.0194 31.9216 36.541 32.3922 36.541 32.9412V46.902C36.541 47.451 37.0194 47.9216 37.5763 47.9216C38.1332 47.9216 38.6116 47.451 38.6116 46.902V32.9412C38.6116 32.3922 38.1332 31.9216 37.5763 31.9216Z" fill="#001452"/>
<path id="Vector_15" d="M41.1451 38.902C40.5883 38.902 40.1177 39.3726 40.1177 39.9216V46.902C40.1177 47.451 40.5961 47.9216 41.1451 47.9216C41.6941 47.9216 42.1804 47.451 42.1804 46.902V39.9216C42.1804 39.3726 41.702 38.902 41.1451 38.902Z" fill="#001452"/>
</g>
</g>
</svg>
