<svg width="60" height="56" viewBox="0 0 60 56" fill="none" xmlns="http://www.w3.org/2000/svg">
<g id="Group 466">
<path id="Vector" d="M23.1159 54.9999C22.5837 54.9999 22.1553 54.567 22.1553 54.0293V10.7716C22.1553 9.72882 22.9926 8.88281 24.0246 8.88281C31.8717 8.88281 38.252 15.3295 38.252 23.2583V54.0293C38.252 54.567 37.8236 54.9999 37.2914 54.9999H37.2784H23.1159Z" fill="#DBDAFD"/>
<path id="Vector_2" d="M58.0418 13.468H37.2848C36.7526 13.468 6.50244 14.0058 6.50244 13.468C6.50244 12.9303 36.7526 11.5268 37.2848 11.5268L30.5024 7.5H29.0024C25.6728 5.16529 38.1481 2.29948 34.2537 3.90623C32.6441 4.5686 31.2161 4.90307 30.0024 4.90307C28.7886 4.90307 27.3607 4.5686 25.751 3.90623C21.8632 2.30603 45.3256 4.16529 42.0024 6.5L41.0024 8L42.0024 11.5268C42.5347 11.5268 44.5024 11 43.0024 11.5268C43.0024 11.5268 20.3249 13.468 19.7927 13.468H1.96299C1.5411 13.468 1.17114 13.1926 1.04132 12.786C0.918003 12.3794 1.06729 11.94 1.41129 11.6973L13.1203 3.47339C16.9887 0.764863 21.98 0.246767 26.478 2.09617C27.854 2.66018 29.0418 2.94873 30.0024 2.94873C30.963 2.94873 32.1508 2.66018 33.5268 2.09617C38.0248 0.246767 43.016 0.758305 46.8844 3.47339L58.587 11.6908C58.931 11.9334 59.0803 12.3728 58.9569 12.7794C58.8336 13.186 58.4572 13.4615 58.0353 13.4615L58.0418 13.468Z" fill="#DBDAFD"/>
<path id="Vector 35" d="M58.0024 16.5H2.50244L8.00244 22L18.0024 26.5H40.5024L49.5024 24L58.0024 16.5Z" fill="#DBDAFD"/>
<path id="Vector_3" d="M58.0418 13.468H37.2848C36.7526 13.468 36.3242 13.0352 36.3242 12.4974C36.3242 11.9597 36.7526 11.5268 37.2848 11.5268H54.9652L45.7875 5.08014C42.4578 2.74543 38.1481 2.29948 34.2537 3.90623C32.6441 4.5686 31.2161 4.90307 30.0024 4.90307C28.7886 4.90307 27.3607 4.5686 25.751 3.90623C21.8632 2.30603 17.5469 2.74543 14.2237 5.08014L5.04602 11.5268H19.7927C20.3249 11.5268 20.7533 11.9597 20.7533 12.4974C20.7533 13.0352 20.3249 13.468 19.7927 13.468H1.96299C1.5411 13.468 1.17114 13.1926 1.04132 12.786C0.918003 12.3794 1.06729 11.94 1.41129 11.6973L13.1203 3.47339C16.9887 0.764863 21.98 0.246767 26.478 2.09617C27.854 2.66018 29.0418 2.94873 30.0024 2.94873C30.963 2.94873 32.1508 2.66018 33.5268 2.09617C38.0248 0.246767 43.016 0.758305 46.8844 3.47339L58.587 11.6908C58.931 11.9334 59.0803 12.3728 58.9569 12.7794C58.8336 13.186 58.4572 13.4615 58.0353 13.4615L58.0418 13.468Z" fill="#001452" stroke="#001452" stroke-width="0.75"/>
<path id="Vector_4" d="M40.2123 27.2076C39.7645 27.2076 39.3621 26.8928 39.2712 26.4338C39.1609 25.9091 39.4984 25.391 40.0176 25.2861C42.5425 24.7614 45.0413 24.0269 47.4494 23.1088C49.9482 22.1513 52.7262 20.1904 55.7314 17.2654H39.4464C38.9142 17.2654 38.4858 16.8326 38.4858 16.2948C38.4858 15.7571 38.9142 15.3242 39.4464 15.3242H58.042C58.425 15.3242 58.7755 15.5538 58.9247 15.9145C59.074 16.2752 59.0026 16.6883 58.7365 16.9703C54.9135 21.0298 51.3437 23.7056 48.1309 24.9385C45.632 25.896 43.0293 26.6567 40.4071 27.2011C40.3422 27.2142 40.2772 27.2207 40.2123 27.2207V27.2076Z" fill="#001452" stroke="#001452" stroke-width="0.75"/>
<path id="Vector_5" d="M19.7928 27.2064C19.7279 27.2064 19.663 27.1998 19.5981 27.1867C16.9759 26.6424 14.3797 25.8751 11.8808 24.9241C8.66793 23.6978 5.0981 21.0155 1.27513 16.9559C1.00253 16.6805 0.931133 16.2608 1.08042 15.9066C1.2297 15.5459 1.58019 15.3164 1.96314 15.3164H19.7863C20.3186 15.3164 20.7469 15.7492 20.7469 16.287C20.7469 16.8248 20.3186 17.2576 19.7863 17.2576H4.28028C7.27894 20.1826 10.0569 22.1435 12.5623 23.101C14.9638 24.0191 17.4627 24.7536 19.9875 25.2783C20.5068 25.3898 20.8443 25.9013 20.734 26.426C20.6431 26.885 20.2407 27.1998 19.7928 27.1998V27.2064Z" fill="#001452" stroke="#001452" stroke-width="0.75"/>
<path id="Vector_6" d="M37.2784 54.9999C36.7461 54.9999 36.3178 54.5671 36.3178 54.0293V23.2583C36.3178 16.4247 30.8332 10.8634 24.0765 10.8306V54.0293C24.0765 54.5671 23.6481 54.9999 23.1159 54.9999C22.5837 54.9999 22.1553 54.5671 22.1553 54.0293V10.7716C22.1553 9.72882 22.9926 8.88281 24.0246 8.88281C31.8717 8.88281 38.252 15.3295 38.252 23.2583V54.0293C38.252 54.5671 37.8236 54.9999 37.2914 54.9999H37.2784Z" fill="#001452" stroke="#001452" stroke-width="0.75"/>
<path id="Vector_7" d="M23.1095 24.5375C22.5773 24.5375 22.1489 24.1046 22.1489 23.5669C22.1489 23.0291 22.5773 22.5962 23.1095 22.5962C26.3159 22.5962 28.9316 19.9599 28.9316 16.7136V11.244C28.9316 10.7063 29.36 10.2734 29.8922 10.2734C30.4244 10.2734 30.8528 10.7063 30.8528 11.244V16.7136C30.8528 21.0288 27.3803 24.544 23.103 24.544L23.1095 24.5375Z" fill="#001452" stroke="#001452" stroke-width="0.75"/>
</g>
</svg>
