<svg width="58" height="48" viewBox="0 0 58 48" fill="none" xmlns="http://www.w3.org/2000/svg">
<g id="Group 28">
<g id="Group">
<path id="Vector" d="M9.56643 9.69634C11.8551 9.69634 13.7105 7.84098 13.7105 5.55227C13.7105 3.26357 11.8551 1.4082 9.56643 1.4082C7.27773 1.4082 5.42236 3.26357 5.42236 5.55227C5.42236 7.84098 7.27773 9.69634 9.56643 9.69634Z" fill="#DBDAFD" stroke="#001452" stroke-width="2" stroke-linejoin="round"/>
<path id="Vector_2" d="M14.2698 10.4925H4.86516C3.18698 10.4925 1.82617 11.8533 1.82617 13.5315V22.6165C1.82617 23.4567 2.50658 24.1348 3.34452 24.1348C4.18475 24.1348 4.86287 23.4544 4.86287 22.6165V15.0932C4.86287 14.9403 4.98845 14.8147 5.14143 14.8147C5.2944 14.8147 5.41998 14.9403 5.41998 15.0932V37.1538C5.41998 38.2064 6.27391 39.0603 7.32648 39.0603C8.37905 39.0603 9.23298 38.2064 9.23298 37.1538V26.7058C9.23298 26.5231 9.38139 26.3724 9.56634 26.3724C9.74899 26.3724 9.89969 26.5208 9.89969 26.7058V37.1538C9.89969 38.2064 10.7536 39.0603 11.8062 39.0603C12.8588 39.0603 13.7127 38.2064 13.7127 37.1538V15.091C13.7127 14.938 13.8383 14.8124 13.9912 14.8124C14.1442 14.8124 14.2698 14.938 14.2698 15.091V22.6142C14.2698 23.4544 14.9502 24.1326 15.7881 24.1326C16.6284 24.1326 17.3065 23.4522 17.3065 22.6142V13.5292C17.3065 11.851 15.9457 10.4902 14.2675 10.4902L14.2698 10.4925Z" fill="#DBDAFD" stroke="#001452" stroke-width="2" stroke-linejoin="round"/>
</g>
<g id="Group_2">
<path id="Vector_3" d="M46.6973 17.2256C48.986 17.2256 50.8414 15.3703 50.8414 13.0816C50.8414 10.7929 48.986 8.9375 46.6973 8.9375C44.4086 8.9375 42.5532 10.7929 42.5532 13.0816C42.5532 15.3703 44.4086 17.2256 46.6973 17.2256Z" fill="#DBDAFD" stroke="#001452" stroke-width="2" stroke-linejoin="round"/>
<path id="Vector_4" d="M50.6704 24.9668C50.6704 24.9668 50.675 24.9645 50.6819 24.9599C51.312 26.2431 52.5313 28.7181 53.2939 30.2639C53.6638 31.015 54.5748 31.3256 55.326 30.9557C56.0794 30.5835 56.3877 29.6748 56.0178 28.9213L52.5724 21.9209L51.4011 19.5212C50.9536 18.6057 50.0243 18.0234 49.006 18.0234H44.218C43.1997 18.0234 42.2704 18.6034 41.8229 19.5212L40.6516 21.9209L37.2062 28.9213C36.8363 29.6748 37.1446 30.5858 37.898 30.9557C38.6492 31.3256 39.5602 31.0173 39.9301 30.2661C40.6904 28.7204 41.9097 26.2454 42.5421 24.9622C42.549 24.9668 42.5467 24.9645 42.5535 24.969L39.4438 34.8463C39.0785 35.6797 39.6881 36.6112 40.5968 36.6112H42.3389C42.4577 36.6112 42.5535 36.7071 42.5535 36.8259V44.6848C42.5535 45.7373 43.4075 46.5913 44.46 46.5913C45.5126 46.5913 46.3665 45.7373 46.3665 44.6848V36.7711C46.3665 36.682 46.4373 36.6112 46.5264 36.6112H46.6999C46.7889 36.6112 46.8597 36.682 46.8597 36.7711V44.6848C46.8597 45.7373 47.7137 46.5913 48.7662 46.5913C49.8188 46.5913 50.6727 45.7373 50.6727 44.6848V36.8259C50.6727 36.7071 50.7686 36.6112 50.8874 36.6112H52.6295C53.5382 36.6112 54.1478 35.6774 53.7825 34.8463L50.6727 24.969L50.6704 24.9668Z" fill="#DBDAFD" stroke="#001452" stroke-width="2" stroke-linejoin="round"/>
</g>
<g id="Group 462">
<path id="Vector 32" d="M22 21H35" stroke="#001452" stroke-width="2" stroke-linecap="round"/>
<path id="Vector 33" d="M22 26H35" stroke="#001452" stroke-width="2" stroke-linecap="round"/>
<path id="Vector 34" d="M32.5034 17.4121L25.0533 30.397" stroke="#001452" stroke-width="2" stroke-linecap="round"/>
</g>
</g>
</svg>
