<svg width="40" height="40" viewBox="0 0 40 40" fill="none" xmlns="http://www.w3.org/2000/svg">
<g id="982, Back To School, Book, Education, Note">
<g id="Group">
<path id="Vector" d="M10.4817 1.39331V9.23964L7.84571 7.50287L5.27832 9.23964V1.39331H10.4817Z" fill="white"/>
<path id="Vector_2" d="M39.0941 30.9045H19.9966V35.2773H39.0941V30.9045Z" fill="white"/>
<path id="Vector_3" d="M19.9965 30.9045H0.898926V35.2773H19.9965V30.9045Z" fill="white"/>
<path id="Vector_4" d="M39.0941 1.39328V30.9045H19.9966V8.47076C19.9966 4.57849 23.12 1.45506 27.0123 1.45506H39.0941V1.38641V1.39328Z" fill="#DBDAFD"/>
<path id="Vector_5" d="M19.9965 8.47079V30.9732H0.898926V1.39331H5.27172V9.23964L7.90776 7.50287L10.5438 9.23964V1.39331H13.0425C16.8593 1.39331 19.9896 4.58538 19.9896 8.47766L19.9965 8.47079Z" fill="#DBDAFD"/>
<path id="Vector_6" d="M19.9965 9.30827C19.5091 9.30827 19.0972 8.88953 19.0972 8.409C19.0972 5.00412 16.317 2.23079 12.919 2.23079H10.4203C9.93288 2.23079 9.521 1.81205 9.521 1.32466C9.521 0.837263 9.93974 0.418518 10.4203 0.418518H12.919C17.2918 0.418518 20.834 3.96069 20.834 8.33349C20.9026 8.88953 20.4839 9.30827 20.0034 9.30827H19.9965Z" fill="#001452"/>
<path id="Vector_7" d="M19.9963 36.1149H0.898784C0.411392 36.1149 -0.000488281 35.6961 -0.000488281 35.2087V1.39332C-0.000488281 0.905928 0.418257 0.487183 0.898784 0.487183H5.27158C5.75897 0.487183 6.17086 0.905928 6.17086 1.38646C6.17086 1.86698 5.75211 2.29259 5.27158 2.29259H1.80492V34.4467H19.9963C20.4837 34.4467 20.8956 34.8655 20.8956 35.346C20.8956 35.7648 20.4768 36.108 19.9963 36.108V36.1149Z" fill="#001452"/>
<path id="Vector_8" d="M39.094 36.1149H19.9964C19.509 36.1149 19.0972 35.6961 19.0972 35.2087V8.47082C19.0972 4.09802 22.6393 0.555847 27.0121 0.555847H39.094C39.5814 0.555847 40.0001 0.974592 40.0001 1.46198V35.3529C40.0001 35.7716 39.5814 36.1149 39.094 36.1149ZM20.9026 34.3781H38.2633V2.29261H27.0121C23.6073 2.29261 20.8339 5.0728 20.8339 8.47082V34.3712H20.9026V34.3781Z" fill="#001452"/>
<path id="Vector_9" d="M39.0938 31.8039H0.898784C0.411392 31.8039 -0.000488281 31.3851 -0.000488281 30.9046C-0.000488281 30.4241 0.418257 29.9985 0.898784 29.9985H39.0938C39.5812 29.9985 40 30.4172 40 30.9046C40 31.392 39.5812 31.8039 39.0938 31.8039Z" fill="#001452"/>
<path id="Vector_10" d="M10.4819 10.0703C10.3447 10.0703 10.1319 10.0017 9.99456 9.93301L7.83905 8.54635L5.68354 9.93301C5.40895 10.139 5.05885 10.139 4.78427 10.0017C4.50968 9.86436 4.29688 9.58291 4.29688 9.23968V1.39335C4.29688 0.90596 4.71562 0.49408 5.19615 0.49408H10.4064C10.8938 0.49408 11.3126 0.912825 11.3126 1.39335V9.23968C11.3126 9.58978 11.1066 9.86436 10.8252 10.0017C10.7565 10.0703 10.6192 10.0703 10.4751 10.0703H10.4819ZM7.84591 6.59678C7.98321 6.59678 8.19601 6.66542 8.3333 6.73407L9.58268 7.5647V2.22398H6.10915V7.57156L7.35852 6.74094C7.49581 6.67229 7.70862 6.60364 7.84591 6.60364V6.59678Z" fill="#001452"/>
<path id="Vector_11" d="M16.5301 8.33349H13.0565C12.5691 8.33349 12.1504 7.91474 12.1504 7.42735C12.1504 6.93996 12.5691 6.52808 13.0565 6.52808H16.5301C17.0174 6.52808 17.4293 6.94682 17.4293 7.42735C17.4293 7.98339 17.0106 8.33349 16.5301 8.33349Z" fill="#001452"/>
<path id="Vector_12" d="M10.482 14.443H4.37242C3.88503 14.443 3.47314 14.0243 3.47314 13.5369C3.47314 13.0495 3.89189 12.6376 4.37242 12.6376H10.482C10.9694 12.6376 11.3813 13.0564 11.3813 13.5369C11.3126 14.0243 10.8939 14.443 10.482 14.443Z" fill="#001452"/>
<path id="Vector_13" d="M12.2187 17.9166H4.37242C3.88503 17.9166 3.47314 17.4978 3.47314 17.0173C3.47314 16.5368 3.89189 16.1111 4.37242 16.1111H12.2187C12.7061 16.1111 13.118 16.5299 13.118 17.0173C13.0494 17.5047 12.6306 17.9166 12.2187 17.9166Z" fill="#001452"/>
<path id="Vector_14" d="M16.5298 21.3901H4.37242C3.88503 21.3901 3.47314 20.9714 3.47314 20.4909C3.47314 20.0103 3.89189 19.5847 4.37242 19.5847H16.5229C17.0103 19.5847 17.4222 20.0035 17.4222 20.4909C17.4222 20.9782 17.0034 21.3901 16.5229 21.3901H16.5298Z" fill="#001452"/>
<path id="Vector_15" d="M16.5298 24.8636H4.37242C3.88503 24.8636 3.47314 24.4449 3.47314 23.9575C3.47314 23.4701 3.89189 23.0582 4.37242 23.0582H16.5229C17.0103 23.0582 17.4222 23.477 17.4222 23.9575C17.4222 24.438 17.0034 24.8636 16.5229 24.8636H16.5298Z" fill="#001452"/>
<path id="Vector_16" d="M16.5295 28.3371H11.3192C10.8318 28.3371 10.4131 27.9184 10.4131 27.431C10.4131 26.9436 10.8318 26.5317 11.3192 26.5317H16.5295C17.0169 26.5317 17.4288 26.9505 17.4288 27.431C17.4288 27.9115 17.01 28.3371 16.5295 28.3371Z" fill="#001452"/>
<path id="Vector_17" d="M35.6201 14.443H25.2064C24.719 14.443 24.3003 14.0243 24.3003 13.5369C24.3003 13.0495 24.719 12.6376 25.2064 12.6376H35.6201C36.1075 12.6376 36.5263 13.0564 36.5263 13.5369C36.5263 14.0174 36.1075 14.443 35.6201 14.443Z" fill="#001452"/>
<path id="Vector_18" d="M35.6203 17.9166H27.8426C27.3552 17.9166 26.9434 17.4978 26.9434 17.0173C26.9434 16.5368 27.3621 16.1111 27.8426 16.1111H35.689C36.1764 16.1111 36.5882 16.5299 36.5882 17.0173C36.5196 17.5047 36.1008 17.9166 35.6134 17.9166H35.6203Z" fill="#001452"/>
<path id="Vector_19" d="M35.6205 21.3901H23.4701C22.9827 21.3901 22.5708 20.9714 22.5708 20.4909C22.5708 20.0103 22.9895 19.5847 23.4701 19.5847H35.6205C36.1079 19.5847 36.5267 20.0035 36.5267 20.4909C36.5267 20.9782 36.1079 21.3901 35.6205 21.3901Z" fill="#001452"/>
<path id="Vector_20" d="M35.6205 24.8636H23.4701C22.9827 24.8636 22.5708 24.4449 22.5708 23.9575C22.5708 23.4701 22.9895 23.0582 23.4701 23.0582H35.6205C36.1079 23.0582 36.5267 23.477 36.5267 23.9575C36.5267 24.438 36.1079 24.8636 35.6205 24.8636Z" fill="#001452"/>
<path id="Vector_21" d="M28.6804 28.3371H23.4701C22.9827 28.3371 22.5708 27.9184 22.5708 27.431C22.5708 26.9436 22.9895 26.5317 23.4701 26.5317H28.6804C29.1678 26.5317 29.5865 26.9505 29.5865 27.431C29.5865 27.9115 29.1678 28.3371 28.6804 28.3371Z" fill="#001452"/>
<path id="Vector_22" d="M39.0938 39.5815H0.898784C0.411392 39.5815 -0.000488281 39.1628 -0.000488281 38.6754C-0.000488281 38.188 0.418257 37.7761 0.898784 37.7761H39.0938C39.5812 37.7761 40 38.1949 40 38.6754C40 39.2314 39.5812 39.5815 39.0938 39.5815Z" fill="#001452"/>
</g>
</g>
</svg>
