<svg width="44" height="56" viewBox="0 0 44 56" fill="none" xmlns="http://www.w3.org/2000/svg">
<g id="Group 6">
<path id="Vector" d="M21.9424 2.14062C25.7781 2.14062 29.153 3.63803 31.5949 6.1721C34.0368 8.59098 35.6725 12.0465 35.6725 15.7324V20.6854H30.6734V15.7324C30.6734 13.3136 29.7404 11.2402 28.1163 9.62765C26.4922 8.01506 24.3959 7.09358 21.9539 7.09358C17.1853 7.09358 13.2344 11.0099 13.2344 15.7324V20.6854H8.23542V15.7324C8.21238 8.13024 14.3863 2.14062 21.9424 2.14062Z" fill="#DBDAFD" stroke="#001452" stroke-width="2.5"/>
<path id="Vector_2" d="M1.58936 47.9823V25.4061C1.58936 22.7568 3.80091 20.4531 6.58838 20.4531H37.4119C40.0842 20.4531 42.4109 22.6416 42.4109 25.4061V48.9038C42.4109 51.5531 40.1993 53.8568 37.4119 53.8568H6.58838C3.91609 53.8568 1.58936 51.6682 1.58936 48.9038V47.9823ZM24.8567 39.689C25.7897 38.8827 26.3656 37.7309 26.3656 36.4638C26.3656 34.0449 24.3845 32.0868 21.9425 32.0868C19.5006 32.0868 17.5194 34.0449 17.5194 36.4638C17.5194 37.7309 18.0954 38.8827 19.0284 39.689V42.2231H24.8452V39.689H24.8567ZM17.6461 29.2072V26.3276H14.7435V29.2072H17.6461ZM13.223 29.2072V26.3276H10.3089V29.2072H13.223ZM8.91512 29.2072V26.3276H6.01246V29.2072H8.91512Z" fill="#DBDAFD"/>
<path id="Vector_3" d="M1.58936 25.4061V47.9823V48.9038C1.58936 51.6682 3.91609 53.8568 6.58838 53.8568H37.4119C40.1993 53.8568 42.4109 51.5531 42.4109 48.9038V25.4061C42.4109 22.6416 40.0842 20.4531 37.4119 20.4531H6.58838C3.80091 20.4531 1.58936 22.7568 1.58936 25.4061Z" stroke="#001452" stroke-width="2.5"/>
<path id="Vector_4" d="M26.3654 36.4669C26.3654 37.7339 25.7895 38.8858 24.8565 39.692V42.2261H19.0397V39.692C18.1067 38.8858 17.5308 37.7339 17.5308 36.4669C17.5308 34.048 19.5119 32.0898 21.9539 32.0898C24.3958 32.0898 26.377 34.048 26.377 36.4669H26.3654Z" fill="white" stroke="#001452" stroke-width="2" stroke-linejoin="round"/>
<path id="Vector_5" d="M41.6158 27.4922H21.9721C21.6386 27.4922 21.2939 26.9922 21.2939 26.4922C21.2939 25.9922 21.6275 25.4922 21.9721 25.4922H41.6158C41.9493 25.4922 42.2939 25.9922 42.2939 26.4922C42.2939 26.9922 41.9604 27.4922 41.6158 27.4922Z" fill="#001452"/>
<path id="Vector_6" d="M17.6346 26.3281H14.7319V29.2077H17.6346V26.3281Z" fill="#001452"/>
<path id="Vector_7" d="M13.2233 26.3281H10.3091V29.2077H13.2233V26.3281Z" fill="#001452"/>
<path id="Vector_8" d="M8.90364 26.3281H6.00098V29.2077H8.90364V26.3281Z" fill="#001452"/>
</g>
</svg>
