<svg width="52" height="37" viewBox="0 0 52 37" fill="none" xmlns="http://www.w3.org/2000/svg">
<g id="553, Gun, Security, Army, Weapon">
<path id="Vector" d="M47.5827 4.46339H48.6748H48.6928C50.2452 4.46339 51.5178 5.72695 51.3373 7.35153V7.89306C51.3373 9.42738 50.0557 10.6909 48.5033 10.6909H47.4112V11.8643C47.4112 12.135 47.1314 12.4058 46.8607 12.4058H42.8443V17.46C42.8443 17.7308 42.5646 18.0016 42.2938 18.0016H26.8603V21.4312C26.8603 22.9656 25.5787 24.2291 24.0263 24.2291H18.7283L17.907 29.9152H18.268C19.8204 29.9152 21.102 31.1787 21.102 32.713C21.102 34.2474 19.8204 35.5109 18.268 35.5109H8.5025C6.67936 35.5109 5.21723 34.0669 5.21723 32.2618V21.7923C5.21723 19.3554 3.75511 17.1893 1.56193 16.2867C1.38142 16.1965 1.20091 16.016 1.20091 15.8355C0.560101 11.3227 0.650356 11.9545 0.650356 11.8643V11.774C0.749636 11.5935 0.560101 12.0448 3.66486 3.74135C4.39592 1.75575 6.21906 0.492188 8.32199 0.492188H47.0322C47.3119 0.492188 47.5827 0.762951 47.5827 1.03371V4.46339Z" fill="#DBDAFD"/>
<path id="Vector_2" d="M48.6748 4.46339H47.5827V1.03371C47.5827 0.762951 47.3119 0.492188 47.0322 0.492188H8.32199C6.21906 0.492188 4.39592 1.75575 3.66486 3.74135C0.560101 12.0448 0.749636 11.5935 0.650356 11.774V11.8643C0.650356 11.9545 0.560101 11.3227 1.20091 15.8355C1.20091 16.016 1.38142 16.1965 1.56193 16.2867C3.75511 17.1893 5.21723 19.3554 5.21723 21.7923V32.2618C5.21723 34.0669 6.67936 35.5109 8.5025 35.5109H18.268C19.8204 35.5109 21.102 34.2474 21.102 32.713C21.102 31.1787 19.8204 29.9152 18.268 29.9152H17.907L18.7283 24.2291H24.0263C25.5787 24.2291 26.8603 22.9656 26.8603 21.4312V18.0016H42.2938C42.5646 18.0016 42.8443 17.7308 42.8443 17.46V12.4058H46.8607C47.1314 12.4058 47.4112 12.135 47.4112 11.8643V10.6909H48.5033C50.0557 10.6909 51.3373 9.42738 51.3373 7.89306V7.35153C51.5178 5.72695 50.2452 4.46339 48.6928 4.46339H48.6748ZM8.68301 11.2325L15.8041 1.6655H19.5497L12.4286 11.2325H8.68301ZM4.75694 4.10237C5.30749 2.6583 6.76961 1.6655 8.32199 1.6655H14.4412L7.32016 11.2325H2.11248L4.75694 4.10237ZM18.4485 30.9982C19.3601 30.9982 20.1814 31.7202 20.1814 32.713C20.1814 33.6156 19.4504 34.4279 18.4485 34.4279H10.4159V15.7452H15.5243C15.7951 15.7452 16.0749 15.4744 16.0749 15.2037C16.0749 14.9329 15.8041 14.6621 15.5243 14.6621H9.86534C9.59458 14.6621 9.31479 14.9329 9.31479 15.2037V34.4279H8.58373C7.39237 34.4279 6.39054 33.4351 6.39054 32.2618V21.702C6.39054 18.9944 4.83817 16.4672 2.37422 15.2939L1.91392 12.4058H19.4413L16.7969 30.3664C16.7066 30.7274 16.9774 30.9982 17.3474 30.9982H18.4395H18.4485ZM33.6023 12.4058L29.0354 16.9185H20.0009L20.6417 12.4058H33.6023ZM30.5878 16.9185L35.1547 12.4058H37.5284L32.9615 16.9185H30.5878ZM25.8404 21.4312C25.8404 22.3338 25.1093 23.0558 24.1978 23.0558H19.0803L19.8114 18.0016H21.2735V19.3554C21.2735 20.0774 21.6436 20.7995 22.1851 21.341L22.9161 21.8825C23.1869 22.063 23.557 22.063 23.7375 21.7923C23.918 21.5215 23.918 21.1605 23.6472 20.98L22.9161 20.4384C22.5551 20.1677 22.3656 19.8067 22.3656 19.3554V18.0016H25.8314V21.4312H25.8404ZM41.8154 16.9185H34.6041L39.171 12.4058H41.8154V16.9185ZM46.3823 11.2325H13.8907L21.0118 1.6655H46.3913V11.2325H46.3823ZM50.3986 7.8028C50.3986 8.70535 49.5773 9.51764 48.6658 9.51764H47.5737V5.54644H48.6658C49.5773 5.54644 50.3986 6.35873 50.3986 7.26128V7.8028Z" fill="#001452" stroke="#001452"/>
<path id="Vector_3" d="M42.3752 3.92188H26.9417C26.6709 3.92188 26.3911 4.19264 26.3911 4.4634C26.3911 4.73417 26.6619 5.00493 26.9417 5.00493H42.3752C42.646 5.00493 42.9257 4.73417 42.9257 4.4634C42.9257 4.19264 42.7452 3.92188 42.3752 3.92188Z" fill="#001452" stroke="#001452"/>
<path id="Vector_4" d="M42.375 6.71875H21.2825C21.0117 6.71875 20.7319 6.98951 20.7319 7.26028C20.7319 7.53104 21.0027 7.8018 21.2825 7.8018H42.375C42.6457 7.8018 42.9255 7.53104 42.9255 7.26028C42.9255 6.98951 42.745 6.71875 42.375 6.71875Z" fill="#001452" stroke="#001452"/>
</g>
</svg>
