<svg width="56" height="57" viewBox="0 0 56 57" fill="none" xmlns="http://www.w3.org/2000/svg">
<g id="Group 30">
<path id="Vector" d="M13.0521 52.6855C10.0064 52.6855 7.12938 51.4718 4.94912 49.2723C2.77206 47.0743 1.57275 44.17 1.57275 41.0987C1.57275 38.0273 2.77206 35.0893 4.94912 32.893C6.11039 31.7203 7.5004 30.819 9.03672 30.235V30.0432C7.51792 30.0432 6.28008 28.7973 6.28008 27.2673C6.28008 25.7372 7.51792 24.4914 9.03672 24.4914H10.3291V23.7095C10.3291 22.1795 11.5509 20.9336 13.0537 20.9336C14.5564 20.9336 15.8087 22.1795 15.8087 23.7095V24.4914H17.1011C18.6199 24.4914 19.8578 25.7356 19.8578 27.2673C19.8578 28.7359 18.7197 29.9403 17.2871 30.0369C17.3359 30.1494 17.3848 30.2623 17.4337 30.3755C18.8154 30.9562 20.0851 31.8053 21.1807 32.8881C23.3417 35.0716 24.5298 37.9856 24.5298 41.1003C24.5298 44.2149 23.3417 47.0952 21.1871 49.2723C19.0069 51.4734 16.1186 52.6855 13.0521 52.6855Z" fill="#DBDAFD"/>
<path id="Vector_2" d="M13.6541 52.8535C10.6085 52.8535 7.73144 51.6398 5.55117 49.4402C3.37411 47.2423 2.1748 44.3379 2.1748 41.2666C2.1748 38.1953 3.37411 35.2572 5.55117 33.0609C7.02983 31.5678 8.87937 30.5146 10.9296 29.996V29.6637C10.9296 29.2495 11.2635 28.9155 11.6778 28.9155C12.092 28.9155 12.4259 29.2495 12.4259 29.6637V30.5949C12.4259 30.9529 12.1739 31.2579 11.8239 31.3286C9.82501 31.7251 8.02524 32.6884 6.61401 34.1141C4.71631 36.0295 3.66952 38.5694 3.66952 41.2666C3.66952 43.9639 4.7147 46.4717 6.61401 48.387C8.5101 50.3024 11.0099 51.3572 13.6525 51.3572C16.2952 51.3572 18.8286 50.3024 20.7247 48.387C22.6016 46.4909 23.6355 43.9623 23.6355 41.2666C23.6355 38.571 22.6016 36.0102 20.7247 34.1141C19.275 32.682 17.4736 31.7187 15.5133 31.3286C15.1633 31.2579 14.9112 30.9513 14.9112 30.5949V29.6637C14.9112 29.2495 15.2452 28.9155 15.6594 28.9155C16.0736 28.9155 16.4076 29.2495 16.4076 29.6637V29.9976C18.4225 30.5098 20.2688 31.5598 21.7828 33.0561C23.9438 35.2396 25.1318 38.1536 25.1318 41.2682C25.1318 44.3829 23.9438 47.2632 21.7892 49.4402C19.6089 51.6414 16.7206 52.8535 13.6541 52.8535ZM13.6541 48.8301C11.6681 48.8301 9.79611 48.0434 8.38166 46.6129C6.9897 45.2049 6.19176 43.2558 6.19176 41.2666C6.19176 39.2774 6.97043 37.346 8.38166 35.9203C9.79771 34.4914 11.6681 33.7031 13.6541 33.7031C15.6401 33.7031 17.5426 34.4898 18.9587 35.9203C20.3731 37.346 21.1502 39.2437 21.1502 41.2666C21.1502 43.2896 20.3507 45.2065 18.9587 46.6129C17.5426 48.0418 15.6594 48.8301 13.6541 48.8301ZM13.6541 35.1994C12.0711 35.1994 10.5764 35.8304 9.4445 36.9719C8.31102 38.1166 7.68809 39.6419 7.68809 41.2666C7.68809 42.8914 8.32868 44.4327 9.4445 45.5613C11.7243 47.862 15.6449 47.8315 17.8958 45.5613C19.0133 44.4327 19.6555 42.8673 19.6555 41.2666C19.6555 39.6659 19.0309 38.1166 17.8958 36.9719C16.764 35.8288 15.258 35.1994 13.6541 35.1994ZM17.7016 30.2112C17.2874 30.2112 16.9534 29.8772 16.9534 29.463C16.9534 29.0488 17.2874 28.7148 17.7016 28.7148C18.3968 28.7148 18.9619 28.1417 18.9619 27.4353C18.9619 26.7288 18.4096 26.1557 17.7016 26.1557H15.661C15.2468 26.1557 14.9128 25.8217 14.9128 25.4075V23.8775C14.9128 23.1711 14.3477 22.5979 13.6541 22.5979C12.9605 22.5979 12.4275 23.1839 12.4275 23.8775V25.4075C12.4275 25.8217 12.0936 26.1557 11.6794 26.1557H9.63877C8.93074 26.1557 8.37845 26.7176 8.37845 27.4353C8.37845 28.1529 8.94359 28.7148 9.63877 28.7148C10.053 28.7148 10.3869 29.0488 10.3869 29.463C10.3869 29.8772 10.053 30.2112 9.63877 30.2112C8.11997 30.2112 6.88213 28.9653 6.88213 27.4353C6.88213 25.9052 8.11997 24.6593 9.63877 24.6593H10.9312V23.8775C10.9312 22.3474 12.153 21.1016 13.6557 21.1016C15.1585 21.1016 16.4108 22.3474 16.4108 23.8775V24.6593H17.7032C19.222 24.6593 20.4598 25.9036 20.4598 27.4353C20.4598 28.9669 19.222 30.2112 17.7032 30.2112H17.7016Z" fill="#001452" stroke="#001452" stroke-width="0.75"/>
<path id="Vector_3" d="M34.746 30.9113C36.9038 33.0899 39.7937 34.2908 42.881 34.2908L42.8842 34.2892C45.9524 34.2892 48.8294 33.0899 50.9872 30.9096C53.1643 28.7133 54.3636 25.7753 54.3636 22.7039C54.3636 19.6326 53.1643 16.7283 50.992 14.5352C49.5117 13.0083 47.6622 11.9535 45.6072 11.459V9.83106L45.787 10.0093C46.3216 10.5294 47.0007 10.7783 47.7585 10.7895C48.481 10.7735 49.1505 10.4781 49.637 9.96592C50.1555 9.44092 50.4365 8.74413 50.4285 8.00079C50.4205 7.26386 50.1154 6.54942 49.5952 6.0469L44.9361 1.47765C43.9021 0.244624 41.7556 0.329716 40.842 1.42467L36.1411 6.04047C35.6162 6.54781 35.3095 7.26386 35.3031 8.00079C35.2951 8.74413 35.576 9.44092 36.085 9.95468C36.5811 10.4765 37.2505 10.7735 37.9698 10.7895C38.7822 10.8056 39.4083 10.5294 39.9494 10.0045L40.126 9.83266V11.4606C38.0742 11.9551 36.2214 13.0099 34.746 14.5304C32.5898 16.7106 31.4033 19.5909 31.4033 22.7056C31.4033 25.8202 32.5914 28.7342 34.746 30.9113Z" fill="#DBDAFD"/>
<path id="Vector_4" d="M42.881 34.2908C39.7937 34.2908 36.9038 33.0899 34.746 30.9113C32.5914 28.7342 31.4033 25.8202 31.4033 22.7055C31.4033 19.5909 32.5898 16.7106 34.746 14.5304C36.2214 13.0099 38.0742 11.9551 40.126 11.4606V9.83266L39.9494 10.0045C39.4083 10.5294 38.7822 10.8056 37.9698 10.7895C37.2505 10.7735 36.5811 10.4765 36.085 9.95468C35.576 9.44092 35.2951 8.74413 35.3031 8.00079C35.3095 7.26386 35.6162 6.54781 36.1411 6.04047L40.842 1.42467C41.7556 0.329716 43.9021 0.244624 44.9361 1.47765L49.5952 6.0469C50.1154 6.54942 50.4205 7.26386 50.4285 8.00079C50.4365 8.74413 50.1555 9.44092 49.637 9.96592C49.1505 10.4781 48.481 10.7735 47.7585 10.7895C47.0007 10.7783 46.3216 10.5294 45.787 10.0093L45.6072 9.83106V11.459C47.6622 11.9535 49.5117 13.0083 50.992 14.5352C53.1643 16.7283 54.3636 19.6326 54.3636 22.7039C54.3636 25.7753 53.1643 28.7133 50.9872 30.9096C48.8294 33.0899 45.9524 34.2892 42.8842 34.2892L42.881 34.2908ZM40.8742 7.29437C40.9705 7.29437 41.07 7.31363 41.1631 7.35217C41.4409 7.46776 41.6223 7.7407 41.6223 8.04253V12.0659C41.6223 12.4271 41.3638 12.737 41.009 12.8012C39.0182 13.1657 37.2216 14.1258 35.8136 15.5771C33.932 17.478 32.898 20.0083 32.898 22.7039C32.898 25.3996 33.932 27.9603 35.8088 29.858C37.684 31.7525 40.1966 32.7945 42.881 32.7945C45.5654 32.7945 48.0443 31.7525 49.9195 29.858C51.8172 27.9427 52.864 25.4012 52.864 22.7039C52.864 20.0067 51.8188 17.4989 49.9195 15.582C48.5083 14.1242 46.7118 13.1641 44.7209 12.7996C44.3677 12.7338 44.1076 12.4239 44.1076 12.0643V8.04093C44.1076 7.73909 44.2891 7.46616 44.5668 7.35056C44.8446 7.23336 45.1657 7.29597 45.3808 7.50951L46.829 8.9384C47.0698 9.1712 47.3877 9.30766 47.7248 9.29C48.0443 9.28358 48.3397 9.15193 48.5597 8.92074C48.8053 8.67189 48.9354 8.354 48.9289 8.01363C48.9257 7.66845 48.7893 7.35056 48.5484 7.11455L43.8363 2.48911C43.268 1.82443 42.3849 1.90471 41.937 2.43613L37.1831 7.11134C36.9359 7.35056 36.801 7.67006 36.7978 8.01363C36.793 8.354 36.9214 8.67189 37.1574 8.9095C37.3886 9.15193 37.684 9.28198 38.0019 9.29C38.3583 9.31087 38.657 9.16959 38.9026 8.93037L40.346 7.5079C40.4888 7.36662 40.6767 7.29116 40.8709 7.29116L40.8742 7.29437ZM42.881 30.2691C40.8758 30.2691 38.9925 29.4824 37.5765 28.0519C36.162 26.6246 35.385 24.7237 35.385 22.7055C35.385 20.6874 36.1845 18.7641 37.5765 17.3592C38.9925 15.9303 40.8758 15.142 42.881 15.142C44.8863 15.142 46.739 15.9287 48.1535 17.3592C49.5439 18.7657 50.3434 20.7147 50.3434 22.7055C50.3434 24.6964 49.5647 26.623 48.1535 28.0519C46.7374 29.4808 44.867 30.2691 42.881 30.2691ZM42.881 16.6384C41.2771 16.6384 39.7712 17.2693 38.6393 18.4108C37.5219 19.5379 36.8797 21.1033 36.8797 22.7055C36.8797 24.3078 37.5042 25.8539 38.6393 27.0003C40.887 29.272 44.8124 29.2993 47.0907 27.0003C48.2241 25.8539 48.8471 24.3287 48.8471 22.7055C48.8471 21.0824 48.2065 19.5395 47.0907 18.4108C45.9588 17.2677 44.4641 16.6384 42.881 16.6384Z" fill="#001452" stroke="#001452" stroke-width="0.75"/>
<path id="Vector 19" d="M55 36.7578H29.7133V55.4218H1" stroke="#001452" stroke-width="2" stroke-linecap="round" stroke-linejoin="round"/>
</g>
</svg>
